<svg width="122" height="94" viewBox="0 0 122 94" fill="none" xmlns="http://www.w3.org/2000/svg">
<g clip-path="url(#clip0_138_1488)">
<path d="M83.0581 93.2938C83.0581 93.2938 76.9464 79.1702 61.2752 74.3839C56.4955 74.6978 50.1487 74.6193 44.9772 72.03C37.3767 68.1853 26.7203 59.7111 35.8096 41.8998C43.3317 27.3055 61.1969 30.1302 59.7081 41.8998" stroke="#FFBD00" stroke-width="1.7008" stroke-miterlimit="10" stroke-linecap="round" stroke-linejoin="round"/>
<path d="M96.3779 93.2939L93.4004 77.6795C101.941 77.6795 109.933 65.9099 107.269 54.9249" stroke="#FFBD00" stroke-width="1.7008" stroke-miterlimit="10" stroke-linecap="round" stroke-linejoin="round"/>
<path d="M105.701 68.1854C110.638 68.1854 129.835 56.6511 116.906 35.4658" stroke="#FFBD00" stroke-width="1.7008" stroke-miterlimit="10" stroke-linecap="round" stroke-linejoin="round"/>
<path d="M35.4172 64.576C4.30991 79.5626 -13.6336 35.6227 15.123 22.0484C16.9252 10.985 39.1782 -3.21701 56.4165 11.8481" stroke="#FFBD00" stroke-width="1.7008" stroke-miterlimit="10" stroke-linecap="round" stroke-linejoin="round"/>
<path d="M88.0723 93.2938C88.0723 93.2938 63.3902 71.4808 81.8822 48.6477" stroke="#FFBD00" stroke-width="1.7008" stroke-miterlimit="10" stroke-linecap="round" stroke-linejoin="round"/>
<path d="M75.1426 64.3406C75.7694 72.5793 95.8285 76.1102 94.2614 60.182" stroke="#FFBD00" stroke-width="1.7008" stroke-miterlimit="10" stroke-linecap="round" stroke-linejoin="round"/>
<path d="M120.747 52.8064C120.747 52.8064 109.934 50.9233 109.777 41.8214C115.732 41.4291 120.042 47.6278 120.747 52.8064Z" fill="#FFBD00"/>
<path d="M106.799 65.2037C106.799 65.2037 99.1987 66.1453 98.7285 57.985C102.803 56.7296 106.642 61.5159 106.799 65.2037Z" fill="#FFBD00"/>
<path d="M88.0728 71.2455C88.0728 71.2455 78.9052 67.6361 83.0581 57.7496C89.875 59.4758 89.6399 68.4992 88.0728 71.2455Z" fill="#FFBD00"/>
<path d="M80.0023 51.2371C80.0023 51.2371 78.8269 41.0368 89.0132 39.3105C91.834 47.7062 80.0023 51.2371 80.0023 51.2371Z" fill="#FFBD00"/>
<path d="M59.7858 39.3105C59.7858 39.3105 52.7337 44.4107 59.0806 53.5125C64.6438 46.6077 60.726 42.0568 59.7858 39.3105Z" fill="#FFBD00"/>
<path d="M33.6934 47.3138C33.6934 47.3138 36.2791 66.1452 56.4949 61.9082C64.2521 60.1035 67.1513 52.7279 67.1513 52.7279" stroke="#FFBD00" stroke-width="1.7008" stroke-miterlimit="10" stroke-linecap="round" stroke-linejoin="round"/>
<path d="M41.6845 60.1035C41.6845 60.1035 39.2554 49.8247 46.6209 47.3138C49.4417 54.611 41.6845 60.1035 41.6845 60.1035Z" fill="#FFBD00"/>
<path d="M32.4389 56.808C32.4389 56.808 15.5924 62.222 14.7305 49.4324" stroke="#FFBD00" stroke-width="1.7008" stroke-miterlimit="10" stroke-linecap="round" stroke-linejoin="round"/>
<path d="M15.4364 52.7279C15.4364 52.7279 6.58215 49.7463 14.4961 37.5059C20.2161 43.7045 19.4325 50.4524 15.4364 52.7279Z" fill="#FFBD00"/>
<path d="M37.5327 39.3105C27.5031 32.0918 33.3798 17.419 44.2713 18.5175" stroke="#FFBD00" stroke-width="1.7008" stroke-miterlimit="10" stroke-linecap="round" stroke-linejoin="round"/>
<path d="M40.1973 18.8314C40.1973 18.8314 41.9211 10.5142 52.4991 16.9483C48.3463 21.813 43.3315 22.7546 40.1973 18.8314Z" fill="#FFBD00"/>
<path d="M53.6738 9.72957C53.6738 9.72957 53.5955 20.9499 63.3116 21.2638C64.2519 12.3189 56.2596 9.18032 53.6738 9.72957Z" fill="#FFBD00"/>
<path d="M65.8978 54.9249C65.8978 54.9249 62.0583 44.4107 71.3043 40.6444C75.0654 48.4124 68.2484 54.3756 65.8978 54.9249Z" fill="#FFBD00"/>
<path d="M94.3399 33.3472C107.504 26.6777 113.067 34.4457 113.067 34.4457C111.03 13.8881 97.7092 4.78626 83.0566 8.31714" stroke="#FFBD00" stroke-width="1.7008" stroke-miterlimit="10" stroke-linecap="round" stroke-linejoin="round"/>
<path d="M102.019 30.7579C102.019 30.7579 93.9486 30.2086 96.5343 20.0083C102.881 21.1853 103.743 27.6193 102.019 30.7579Z" fill="#FFBD00"/>
<path d="M103.979 13.3389C103.979 13.3389 102.49 17.8114 97.1621 14.9082C98.7292 11.3773 102.49 11.9266 103.979 13.3389Z" fill="#FFBD00"/>
<path d="M67.0718 14.5159C67.0718 14.5159 65.5047 26.207 78.12 28.8748C85.6422 31.3072 90.5002 23.3823 90.5002 23.3823" stroke="#FFBD00" stroke-width="1.7008" stroke-miterlimit="10" stroke-linecap="round" stroke-linejoin="round"/>
<path d="M78.1211 28.8748C78.1211 28.8748 85.4082 33.1118 78.1211 39.3105" stroke="#FFBD00" stroke-width="1.7008" stroke-miterlimit="10" stroke-linecap="round" stroke-linejoin="round"/>
<path d="M71.0683 25.4224C71.0683 25.4224 69.6579 15.6144 76.2398 14.5159C79.9226 19.616 71.0683 25.4224 71.0683 25.4224Z" fill="#FFBD00"/>
<path d="M49.9121 7.53261C59.3932 -5.25704 84.8588 1.25548 85.4856 14.5159" stroke="#FFBD00" stroke-width="1.7008" stroke-miterlimit="10" stroke-linecap="round" stroke-linejoin="round"/>
<path d="M68.7185 0.863159C68.7185 0.863159 64.9574 6.98336 70.9125 9.65114C73.4982 6.51257 68.7185 0.863159 68.7185 0.863159Z" fill="#FFBD00"/>
<path d="M67.4637 17.8113C67.4637 17.8113 70.833 11.4558 64.7213 9.1803C62.2923 12.5543 67.4637 17.8113 67.4637 17.8113Z" fill="#FFBD00"/>
<path d="M88.463 25.9716C88.463 25.9716 95.28 23.6961 92.3808 17.8898C88.3846 18.5959 88.463 25.9716 88.463 25.9716Z" fill="#FFBD00"/>
<path d="M107.738 61.5159C107.738 61.5159 114.869 62.4575 114.869 55.9449C110.951 54.8464 107.738 61.5159 107.738 61.5159Z" fill="#FFBD00"/>
<path d="M88.9336 35.7797C88.9336 35.7797 95.5155 38.7613 97.3177 32.4842C93.9484 30.2872 88.9336 35.7797 88.9336 35.7797Z" fill="#FFBD00"/>
<path d="M61.353 74.6978C61.353 74.6978 55.7898 73.0501 56.0248 66.3806C61.7448 66.3806 63.3119 73.3639 61.353 74.6978Z" fill="#FFBD00"/>
<path d="M56.8086 34.0534C56.8086 34.0534 63.3905 34.3673 64.0957 29.3456" stroke="#FFBD00" stroke-width="1.7008" stroke-miterlimit="10" stroke-linecap="round" stroke-linejoin="round"/>
<path d="M63.546 31.0717C63.546 31.0717 62.0573 27.4624 65.0348 24.2454C68.4041 27.7762 63.546 31.0717 63.546 31.0717Z" fill="#FFBD00"/>
<path d="M22.018 34.0534C22.018 34.0534 14.966 31.9349 15.2011 21.97" stroke="#FFBD00" stroke-width="1.7008" stroke-miterlimit="10" stroke-linecap="round" stroke-linejoin="round"/>
<path d="M18.4141 31.6995C18.4141 31.6995 18.4924 40.8798 27.1116 39.3105C26.1713 32.4056 18.4141 31.6995 18.4141 31.6995Z" fill="#FFBD00"/>
</g>
<defs>
<clipPath id="clip0_138_1488">
<rect width="122" height="94" fill="white"/>
</clipPath>
</defs>
</svg>
