<svg width="63" height="62" viewBox="0 0 63 62" fill="none" xmlns="http://www.w3.org/2000/svg">
<circle cx="31.5" cy="31" r="31" fill="#FFBD00"/>
<path d="M36.3302 36.644L37.9422 40.1104C37.9422 40.1104 45.1887 41.6491 45.1887 45.309C45.1887 47.9093 41.9647 47.9093 41.9647 47.9093H33.3786L29.1514 45.5608" fill="#FFBD00"/>
<path d="M36.3302 36.644L37.9422 40.1104C37.9422 40.1104 45.1887 41.6491 45.1887 45.309C45.1887 47.9093 41.9647 47.9093 41.9647 47.9093H33.3786L29.1514 45.5608" stroke="white" stroke-width="1.5" stroke-linecap="round" stroke-linejoin="round"/>
<path d="M26.669 36.644L25.0589 40.1104C25.0589 40.1104 17.8105 41.6491 17.8105 45.309C17.8105 47.9093 21.0345 47.9093 21.0345 47.9093H24.9236L29.1509 45.5608L34.3176 42.2729" fill="#FFBD00"/>
<path d="M26.669 36.644L25.0589 40.1104C25.0589 40.1104 17.8105 41.6491 17.8105 45.309C17.8105 47.9093 21.0345 47.9093 21.0345 47.9093H24.9236L29.1509 45.5608L34.3176 42.2729" stroke="white" stroke-width="1.5" stroke-linecap="round" stroke-linejoin="round"/>
<path d="M14.5908 38.3759C14.5908 38.3759 18.6171 37.5098 21.0332 36.6436C23.4474 24.5104 30.692 25.3766 31.4999 25.3766C32.3059 25.3766 39.5524 24.5104 41.9666 36.6436C44.3828 37.5079 48.409 38.3759 48.409 38.3759" fill="#FFBD00"/>
<path d="M14.5908 38.3759C14.5908 38.3759 18.6171 37.5098 21.0332 36.6436C23.4474 24.5104 30.692 25.3766 31.4999 25.3766C32.3059 25.3766 39.5524 24.5104 41.9666 36.6436C44.3828 37.5079 48.409 38.3759 48.409 38.3759" stroke="white" stroke-width="1.5" stroke-linecap="round" stroke-linejoin="round"/>
<path d="M31.4998 21.606C32.4963 21.606 33.4521 21.2101 34.1568 20.5054C34.8615 19.8007 35.2573 18.845 35.2573 17.8484C35.2573 16.8518 34.8615 15.8961 34.1568 15.1914C33.4521 14.4867 32.4963 14.0908 31.4998 14.0908C30.5032 14.0908 29.5474 14.4867 28.8428 15.1914C28.1381 15.8961 27.7422 16.8518 27.7422 17.8484C27.7422 18.845 28.1381 19.8007 28.8428 20.5054C29.5474 21.2101 30.5032 21.606 31.4998 21.606Z" fill="#FFBD00" stroke="white" stroke-width="1.5" stroke-linecap="round" stroke-linejoin="round"/>
</svg>
