<svg width="152" height="140" viewBox="0 0 152 140" fill="none" xmlns="http://www.w3.org/2000/svg">
<g clip-path="url(#clip0_25_2)">
<path d="M149.141 55.1229C147.584 52.0089 145.08 49.4366 142.304 47.4058C142.236 47.135 142.101 46.9319 141.83 46.9319C141.695 46.9319 141.627 46.9319 141.492 46.8643C141.424 46.7966 141.289 46.7289 141.221 46.6612C140.95 46.4581 140.679 46.5258 140.476 46.7289C139.258 46.5935 137.972 46.5258 136.753 46.5258C137.836 45.0365 137.972 42.8026 137.498 41.0426C136.889 38.6056 135.061 36.4394 132.759 35.424C130.322 34.4086 127.547 34.6117 125.245 35.8979C122.876 37.1841 121.455 39.621 121.184 42.2611C121.048 43.7503 121.251 45.2396 121.861 46.5258C122.402 47.7443 123.35 48.7597 123.824 49.9781C122.808 50.3166 121.861 50.5874 120.845 50.9259C119.762 51.2643 118.611 51.5351 117.528 52.0089C116.851 52.2797 116.31 52.8213 116.039 53.4305C114.821 52.889 113.737 52.009 112.722 51.1289C110.691 49.3689 108.796 47.4735 106.9 45.5781C103.042 41.7195 99.251 37.7933 95.5279 33.7994C91.8047 29.8055 88.0139 25.8792 84.1554 22.0207C80.2968 18.1622 76.3706 14.439 72.1736 10.919C67.9766 7.39891 63.6442 3.81114 58.4318 1.91572C53.6256 0.223381 47.9393 -0.250457 43.2008 1.84804C41.1023 2.79575 39.3422 4.35269 38.1238 6.3158C36.973 8.21122 36.296 10.3774 36.0252 12.6113C35.416 17.2822 36.296 22.0884 37.853 26.4885C39.4776 31.0916 41.9146 35.3563 44.8254 39.2826C47.7362 43.2765 51.1209 46.9319 54.7764 50.3166C55.0471 50.5874 55.3856 50.8582 55.7241 51.1966C54.7764 51.1289 53.8963 51.0612 52.9486 50.9935C49.2932 50.8582 45.6377 50.5197 42.05 50.0458C40.2222 49.8428 38.4622 49.572 36.6345 49.3012C35.416 49.0981 34.1298 48.8951 32.9113 48.4889C31.8282 48.1504 30.7451 47.6089 29.8651 46.8643C28.9851 46.0519 28.579 45.0365 28.4436 43.8857C28.3082 42.5318 28.2405 41.0426 27.1574 40.0949C26.0066 39.0795 24.2466 39.1472 22.825 39.418C19.6434 40.0272 16.868 41.9226 13.6187 42.058C11.9263 42.1257 10.3017 41.9226 8.74476 41.3134C7.3232 40.7718 5.96933 39.9595 4.41238 39.8241C3.73544 39.7564 3.12619 39.8918 2.58464 40.1626C2.58464 40.0949 2.58464 40.0272 2.51695 39.9595C2.44925 39.5533 1.90771 39.3503 1.56924 39.5533C0.553837 40.0949 0.14768 41.2457 0.283067 42.3288C0.418454 43.5473 1.0277 44.6304 2.0431 45.3073C3.19389 46.1196 4.61545 46.5258 5.90162 46.9996C7.1878 47.4735 8.40629 48.2181 9.42169 49.0981C11.6556 50.9259 13.4833 53.092 15.7849 54.7844C18.0865 56.409 20.6588 57.6275 23.2989 58.5752C26.0066 59.5906 28.7144 60.3353 31.4898 61.1476C34.4006 62.0276 37.2437 62.9753 39.9515 64.2615C42.93 65.6153 45.9085 67.1723 48.887 68.5939C51.8655 69.9477 54.9117 71.1662 58.0257 72.1816C60.3949 72.994 62.8319 73.6709 65.2012 74.2801C65.3366 74.3478 65.4043 74.3478 65.5396 74.3478C69.3305 75.2955 73.189 76.1756 77.0475 76.9202C77.5214 76.9879 77.9276 77.1233 78.4014 77.1909C75.0844 79.2218 71.8351 81.4557 68.7212 83.7572C67.1643 84.908 65.5396 86.1265 64.2535 87.6834C62.9673 89.1727 62.155 90.9327 61.7488 92.8959C60.8688 96.8221 61.5457 100.884 61.9519 104.81C62.4257 109.413 62.9673 114.016 63.4411 118.619C63.915 123.155 64.3889 127.69 64.9304 132.226C65.1335 134.054 65.6073 135.881 67.232 136.897C68.7212 137.844 70.6167 137.709 72.309 137.641C76.7091 137.438 81.0415 138.183 85.3738 138.995C87.4046 139.401 89.4355 139.74 91.4663 139.943C93.1586 140.078 94.9863 140.011 96.6787 139.334C97.491 138.995 98.2356 138.521 98.9125 137.98C99.3864 137.574 98.9803 136.897 98.4387 136.897C94.8509 136.491 91.1955 136.017 88.0816 134.054C86.5923 133.106 85.2385 132.023 83.6138 131.346C81.9215 130.601 80.1614 130.263 78.3337 129.992C77.4537 129.857 76.5737 129.721 75.6937 129.518C74.949 129.383 74.0013 129.247 73.4598 128.706C72.9182 128.164 72.8505 127.352 72.7829 126.607C72.6475 125.66 72.5798 124.712 72.4444 123.764C72.1059 119.838 72.0382 115.912 72.309 112.053C72.5798 108.195 73.189 104.404 74.069 100.613C74.4752 98.8529 74.8814 97.0252 76.0998 95.6036C77.2506 94.2497 78.6722 93.0989 80.0261 91.9481C82.8015 89.5789 85.78 87.345 88.8262 85.2465C91.8047 83.2157 94.9863 81.4557 98.1679 79.6956C101.214 78.0033 104.328 76.1756 106.833 73.6032C107.171 73.197 107.51 72.8586 107.848 72.4524C107.916 72.5878 108.051 72.7232 108.254 72.7232C112.316 73.4001 116.445 74.1447 120.101 76.1078C121.658 76.9879 123.147 78.0033 124.298 79.3572C124.907 80.0341 125.381 80.711 125.855 81.4556C126.261 82.2003 126.667 83.0803 127.412 83.5541C128.427 84.2988 129.713 83.9603 130.796 83.6218C131.947 83.2157 133.03 82.8095 134.181 82.4034C134.452 82.6064 134.722 82.7418 135.061 82.9449C135.399 83.148 135.941 82.9449 136.009 82.5387C136.009 82.471 136.009 82.4711 136.076 82.4034C136.076 82.4034 136.076 82.3357 136.144 82.3357L136.212 82.268L136.279 82.2003C136.279 82.2003 136.415 82.1326 136.482 82.0649C136.482 82.0649 136.55 81.9972 136.618 81.9972C136.686 81.9972 136.753 81.9295 136.821 81.9295C137.159 81.8618 137.227 81.8618 137.566 81.7941C137.836 81.7941 138.175 81.7264 138.446 81.7264C139.123 81.6587 139.732 81.591 140.341 81.3203C141.018 80.9818 141.492 80.3726 141.695 79.6279C141.898 78.8156 141.763 78.0033 141.898 77.1909C141.966 76.514 142.304 75.9048 142.643 75.3632C143.455 74.2124 144.741 73.3324 145.892 72.4524C146.975 71.5724 147.99 70.6924 148.87 69.5416C149.006 69.4739 149.141 69.3385 149.209 69.1354C149.209 69.0677 149.209 69.0677 149.209 69C150.021 67.6462 150.63 66.1569 150.901 64.5999C151.307 61.5537 150.698 58.1691 149.141 55.1229ZM81.7861 21.3438C85.6446 25.1346 89.3001 28.9931 93.0232 32.9194C95.3248 35.3563 97.6941 37.861 99.9957 40.298C99.928 40.3657 99.8603 40.501 99.8603 40.6364C99.1156 41.178 98.5741 41.9903 98.1002 42.8026C97.2202 44.3596 96.3402 45.9165 95.4602 47.4735C94.5802 49.0304 93.7001 50.5197 92.8201 52.0766C92.0078 53.5659 91.0601 55.0552 90.3832 56.6121C90.1801 57.086 89.977 57.6275 89.7739 58.1691C89.6385 57.8306 89.5708 57.5598 89.4355 57.2214C87.9462 53.2274 86.0508 49.4366 83.8846 45.7812C81.7184 42.1257 79.2814 38.6056 76.7091 35.221C73.9336 31.5655 71.0905 28.1131 68.0443 24.6608C67.7735 24.39 67.5028 24.1192 67.232 23.7807C68.6535 20.0576 69.3305 16.0637 69.2628 12.0698C69.2628 11.3928 69.1951 10.7159 69.1951 10.0389C69.3982 10.242 69.6689 10.3774 69.872 10.5805C74.0013 13.9652 77.9276 17.6206 81.7861 21.3438ZM52.204 68.7293C49.2255 67.5108 46.4501 66.0215 43.5392 64.5999C40.7638 63.2461 37.9207 61.9599 35.0098 61.0122C32.3698 60.1322 29.6621 59.3875 27.022 58.5752C24.382 57.7629 21.8096 56.8152 19.3726 55.529C18.1542 54.9198 17.0034 54.1752 15.9203 53.2951C14.8372 52.4828 13.8218 51.4674 12.8741 50.5197C11.8587 49.572 10.8433 48.5566 9.76016 47.7443C8.67707 46.8642 7.45859 46.255 6.10472 45.7812C5.69855 45.6458 5.22468 45.5104 4.81852 45.3073C4.88622 45.3073 4.95392 45.2396 5.02162 45.2396C5.36008 45.0365 5.42777 44.698 5.22469 44.3596C4.95391 43.818 4.68315 43.2765 4.34468 42.7349C4.20929 42.4642 3.73543 42.3288 3.46465 42.5318C3.12618 42.7349 3.0585 43.0734 3.26158 43.4119C3.53235 43.9534 3.80312 44.495 4.14159 45.0365L4.20928 45.1042C3.60004 44.8334 2.9908 44.5627 2.51695 44.0888C2.38156 43.9534 2.17849 43.7503 2.0431 43.5472C2.92312 43.1411 3.46467 42.2611 3.39697 41.3134C4.54776 40.9072 5.90163 41.5164 6.98472 41.9903C8.47398 42.6672 9.96323 43.2088 11.5879 43.3442C13.2125 43.5473 14.9049 43.3442 16.4618 42.938C17.9511 42.5318 19.4403 41.8549 20.9296 41.3811C22.2835 40.9072 23.8404 40.4334 25.262 40.6364C25.8712 40.7041 26.4128 41.0426 26.7512 41.5841C27.022 42.1257 27.0897 42.7349 27.1574 43.3442C27.2928 44.6304 27.4959 45.9165 28.2405 46.9996C28.9174 47.9473 29.9328 48.692 30.9482 49.1658C33.4529 50.3843 36.2283 50.6551 38.9361 50.9935C42.5238 51.4674 46.1116 51.9413 49.6994 52.1443C52.2717 52.2797 54.8441 52.2797 57.3487 52.6859C57.4164 52.7536 57.4164 52.7536 57.4841 52.8213C57.7549 53.092 58.0933 53.0244 58.2964 52.889C58.7703 52.9567 59.2441 53.0921 59.718 53.2274C62.2903 53.9044 64.6596 55.0552 66.7581 56.6121C66.9612 56.7475 67.1643 56.8829 67.2997 57.0183C67.0289 57.0183 66.7581 57.2214 66.6227 57.4921C64.9304 62.0276 64.1858 66.8338 64.3212 71.6401C64.3212 71.9785 64.3211 72.317 64.3888 72.6555C64.3888 72.7232 64.3888 72.7909 64.3888 72.8586C63.238 72.5878 62.155 72.2493 61.0042 71.9109C58.161 70.9632 55.1148 69.9477 52.204 68.7293ZM66.1489 73.2647C66.0812 73.197 66.0135 73.1293 65.8781 73.1293C65.8781 73.0616 65.8781 72.9939 65.8781 72.9939C65.8781 72.7232 65.8781 72.4524 65.8104 72.1816C65.8104 71.6401 65.7427 71.0985 65.7427 70.557C65.7427 69.5416 65.8104 68.4585 65.8781 67.4431C66.0812 65.3446 66.4197 63.3138 66.9612 61.283C67.2997 60.1322 67.6381 58.9814 68.0443 57.8306C68.112 57.6952 68.112 57.6275 68.0443 57.4921C68.9243 58.1691 69.7366 58.9814 70.4813 59.7937C70.4136 60.1322 70.6167 60.4706 70.9551 60.5383C71.0228 60.5383 71.0905 60.5383 71.1582 60.606C73.2567 63.1107 74.8814 66.0215 75.8291 69.1354C76.0322 69.7447 76.1675 70.4216 76.3706 71.0308C76.5737 71.8432 77.7922 71.5047 77.6568 70.6924C76.9798 67.6462 75.6937 64.7353 74.0013 62.163C75.5583 63.043 77.1829 63.7199 78.8753 64.2615C79.6876 64.5322 80.0261 63.2461 79.2137 62.9753C77.7922 62.5014 76.4383 61.9599 75.1521 61.283C75.5583 61.3507 75.9644 61.4183 76.3029 61.486C76.6414 61.5537 76.9799 61.4184 77.1152 61.0122C77.1829 60.6737 76.9798 60.2676 76.6414 60.1999C75.0844 59.9291 73.4598 59.6583 71.9028 59.3876C71.1582 58.5075 70.2782 57.6275 69.3982 56.8829C67.3674 55.1229 65.0658 53.7013 62.4934 52.6859C61.0719 52.1443 59.5826 51.7382 58.0933 51.5351C54.641 48.4212 51.324 45.1042 48.3455 41.4488C45.2993 37.7933 42.6592 33.7317 40.6284 29.3993C38.733 25.2023 37.3791 20.5991 37.3114 15.996C37.2437 11.7313 38.3945 7.12813 41.8469 4.35269C45.7731 1.30648 51.3917 1.37419 55.9948 2.52498C60.4626 3.67577 64.2535 6.11274 67.8412 8.95586C68.2474 12.8144 67.9766 16.7406 66.9612 20.5314C66.7581 21.2761 66.555 22.0207 66.2843 22.7653C64.9304 21.3438 63.5765 19.9222 62.2227 18.5006C62.2904 18.3653 62.358 18.2976 62.358 18.1622C62.2226 16.7406 62.2903 15.3191 62.4934 13.9652C62.5611 13.6267 62.4257 13.2882 62.0196 13.1529C61.6811 13.0852 61.275 13.2882 61.2073 13.6267C61.0719 14.7775 60.9365 15.9283 61.0042 17.0791C60.6657 15.3868 60.3949 13.6944 60.0565 12.0021C59.9888 11.6636 59.5826 11.4605 59.2441 11.5282C58.9057 11.5959 58.7026 12.0021 58.7703 12.3405C58.9734 13.4913 59.1764 14.6421 59.4472 15.7929C59.1764 15.5221 58.9057 15.3191 58.7026 15.0483C58.2964 14.6421 57.8903 14.3036 57.4841 13.8975C56.8749 13.3559 55.9272 14.2359 56.5364 14.8452C59.7857 17.8914 62.9673 21.073 65.9458 24.39C68.992 27.707 71.8351 31.0917 74.6106 34.6794C77.1829 37.9964 79.6876 41.4488 81.9215 45.0365C84.0877 48.5566 86.1185 52.2797 87.6754 56.1383C88.2847 57.5598 88.7585 59.0491 89.2324 60.5383C89.097 61.0799 89.0293 61.6214 89.0293 62.163C89.0293 62.5014 89.3678 62.8399 89.7062 62.8399C89.7739 62.8399 89.8416 62.8399 89.9093 62.7722C90.3155 64.4646 90.7216 66.2246 90.9247 67.9846C90.9924 68.3908 90.9924 68.7293 91.0601 69.1354C90.7893 69.4062 90.5186 69.677 90.2478 69.9477C87.2693 72.6555 83.6815 74.4832 80.2291 76.5817C80.1615 76.5817 80.0938 76.514 80.0938 76.514C75.3552 75.3632 70.752 74.4155 66.1489 73.2647ZM106.697 72.0462C104.463 74.754 101.35 76.6494 98.3033 78.3418C95.1217 80.1695 91.9401 81.8618 88.8262 83.8926C85.7123 85.9911 82.6661 88.225 79.7553 90.662C78.3337 91.8128 76.9122 93.0312 75.6937 94.3174C75.0844 94.9943 74.4752 95.6713 74.069 96.4836C73.6629 97.2959 73.3244 98.1759 73.1213 99.056C72.1059 102.847 71.4967 106.705 71.0905 110.632C70.7521 114.558 70.6843 118.552 70.9551 122.546C71.0228 123.493 71.0905 124.441 71.2259 125.389C71.3613 126.336 71.429 127.284 71.6321 128.164C71.8351 128.977 72.2413 129.721 72.9182 130.195C73.5952 130.669 74.4752 130.804 75.2875 131.007C77.0475 131.346 78.8753 131.549 80.703 131.955C81.583 132.158 82.463 132.429 83.2754 132.835C84.0877 133.241 84.8323 133.715 85.5092 134.189C87.0662 135.204 88.5555 136.22 90.3155 136.829C92.0755 137.438 93.8355 137.844 95.6633 138.047C95.934 138.115 96.2725 138.115 96.5433 138.183C93.9709 139.469 90.5863 138.86 87.8785 138.386C83.5461 137.641 79.2814 136.626 74.8813 136.49C73.8659 136.49 72.9182 136.491 71.9028 136.558C71.0905 136.626 70.2105 136.626 69.3982 136.49C68.6535 136.355 67.9089 136.084 67.3674 135.543C66.7581 134.934 66.4874 134.121 66.352 133.309C66.1489 132.361 66.0812 131.413 66.0135 130.466C65.8781 129.315 65.7427 128.232 65.675 127.081C65.4043 124.847 65.2012 122.613 64.9304 120.379C64.4565 115.844 63.9827 111.376 63.4411 106.841C63.2381 104.742 62.9673 102.644 62.7642 100.478C62.6288 98.5821 62.4934 96.619 62.7642 94.7236C62.9673 92.8959 63.5765 91.0681 64.5919 89.5789C65.675 88.0219 67.1643 86.7357 68.6535 85.5849C72.0382 83.0126 75.5583 80.6433 79.2137 78.4094C83.343 75.9048 88.217 73.4678 91.737 70.0154C92.0078 69.9477 92.2786 69.7447 92.2786 69.4739C93.9709 67.6462 95.3248 65.5477 96.0694 63.043C96.3402 62.163 96.4756 61.283 96.5433 60.403C96.611 59.5906 95.3248 59.5906 95.2571 60.403C95.054 63.1107 93.8355 65.6154 92.1432 67.7139C91.8047 65.2092 91.2632 62.7722 90.5186 60.3353C90.7216 59.3876 90.9924 58.5075 91.3986 57.6275C92.0078 56.1383 92.8878 54.7167 93.7002 53.2951C95.3925 50.3166 97.0171 47.4058 98.7095 44.4273C99.1833 43.615 99.6572 42.3965 100.537 41.7872C102.094 43.6827 103.583 45.5781 105.14 47.4735C106.697 49.3689 108.187 51.2643 109.54 53.3628C111.91 57.086 113.805 61.8922 112.384 66.2923C111.91 67.7815 111.03 69.2031 109.676 70.0154C110.488 68.4585 111.03 66.7661 111.233 65.0061C111.3 64.1938 111.233 63.3815 111.165 62.5691C111.097 62.2307 110.691 62.0276 110.353 62.0953C109.947 62.2307 109.879 62.5691 109.879 62.9076C110.217 66.2246 108.796 69.5416 106.697 72.0462ZM149.547 63.9907C149.344 65.48 148.87 66.9692 148.126 68.2554L148.058 68.3231C147.313 67.8492 146.772 67.1046 146.636 66.2246C146.569 65.8861 146.163 65.6831 145.824 65.7507C145.553 65.8184 145.418 66.0215 145.35 66.2923C145.012 65.8861 144.673 65.48 144.335 65.0061C144.267 64.8707 144.2 64.7353 144.064 64.5999C143.523 64.1261 142.643 64.7353 143.049 65.4123C143.116 65.48 143.116 65.5477 143.184 65.6153C143.184 65.6153 143.184 65.6154 143.184 65.683C143.184 65.7507 143.116 65.8184 143.049 65.8184C142.71 65.9538 142.372 65.7507 142.101 65.6153C141.695 65.3446 141.356 65.0738 141.018 64.803C140.612 64.5323 140.206 64.3969 139.732 64.2615C138.581 63.923 137.362 64.0584 136.212 64.3292C136.347 63.8553 136.415 63.3138 136.279 62.7722C135.941 61.4861 134.722 60.606 133.436 60.5383C132.082 60.5383 130.864 61.4184 129.916 62.2984C129.375 62.7722 128.901 63.3138 128.359 63.7876C127.885 64.2615 127.547 64.803 127.615 65.48C127.682 66.36 128.292 67.1046 129.104 67.4431C129.036 67.6462 128.968 67.8492 129.104 68.0523C129.239 68.3231 129.713 68.5262 129.984 68.2554C130.255 68.0523 130.593 67.7815 130.864 67.5785C131.067 67.3754 131.27 67.1723 131.135 66.8338C131.067 66.5631 130.796 66.36 130.525 66.36C129.916 66.4277 129.036 66.0892 128.901 65.4123C128.901 65.3446 128.901 65.2092 128.901 65.0738C128.968 64.8707 129.104 64.7353 129.239 64.5999C129.645 64.1938 130.052 63.7876 130.458 63.3815C131.135 62.7722 131.879 62.0276 132.759 61.7568C133.572 61.5537 134.384 61.7568 134.79 62.5014C135.264 63.2461 134.926 64.2615 134.181 64.7353C133.572 65.0738 133.978 66.1569 134.655 65.9538C136.415 65.3446 138.649 64.6677 140.409 65.8184C140.883 66.1569 141.221 66.4954 141.763 66.7662C142.236 66.9692 142.846 67.1046 143.32 66.9692C143.59 66.9015 143.793 66.7661 143.929 66.5631C144.47 67.24 145.08 67.8492 145.756 68.3908C145.96 68.5939 146.163 68.5939 146.366 68.5262C146.637 68.797 146.907 69.0677 147.246 69.2708C146.637 70.0831 145.892 70.7601 145.012 71.437C143.861 72.317 142.643 73.197 141.695 74.2801C141.221 74.8894 140.815 75.4986 140.544 76.1755C140.273 76.9202 140.273 77.6648 140.273 78.4094C140.273 78.8156 140.273 79.2895 140.07 79.6279C140.003 79.7633 139.935 79.8987 139.799 80.0341L139.732 80.1018C139.664 80.1695 139.596 80.1695 139.529 80.2372C139.393 80.3049 139.393 80.3049 139.19 80.3726C139.055 80.4402 138.852 80.4402 138.716 80.5079C138.446 80.5756 138.175 80.5756 137.904 80.5756C136.889 80.6433 135.67 80.711 134.993 81.5233C134.926 81.5233 134.926 81.4556 134.858 81.4556C134.519 81.2526 134.249 81.0495 133.842 81.1849C133.301 81.3879 132.759 81.591 132.218 81.7941C131.676 81.9972 131.135 82.2003 130.593 82.4034C130.119 82.6064 129.578 82.8095 129.036 82.8095C128.63 82.8772 128.224 82.8095 127.885 82.5387C127.615 82.268 127.412 81.9295 127.208 81.591C127.141 81.5233 127.141 81.4557 127.073 81.388C127.141 81.2526 127.208 81.0495 127.141 80.9141C125.922 78.0033 125.855 74.754 127.005 71.7755C127.141 71.437 126.87 71.0308 126.532 70.9631C126.261 70.8954 125.99 71.0308 125.855 71.2339C125.652 71.3016 125.516 71.437 125.516 71.6401C125.11 73.6709 124.771 75.7017 124.365 77.7325C121.996 75.4986 118.95 74.077 115.836 73.1293C113.534 72.4524 111.165 72.0462 108.728 71.6401C110.691 71.0985 112.18 69.5416 112.993 67.7139C113.941 65.6154 114.144 63.3138 113.805 61.0122C113.061 55.7998 109.879 51.4674 106.697 47.4735C106.223 46.8642 105.682 46.1873 105.14 45.5781C106.697 47.135 108.187 48.6243 109.744 50.1135C111.571 51.8059 113.399 53.6336 115.701 54.649C115.768 54.649 115.836 54.7167 115.904 54.7167C116.107 55.529 116.648 56.206 117.325 56.6798C118.07 57.2214 119.018 57.5598 119.762 58.1014C119.491 58.5075 119.288 58.9137 119.018 59.3876C118.679 59.9291 119.356 60.606 119.898 60.2676C120.507 59.9291 121.251 59.7937 121.928 59.9968C121.522 60.5383 121.116 61.0799 120.71 61.6214C120.574 61.8245 120.642 62.2307 120.845 62.4338C121.048 62.6368 121.387 62.6368 121.658 62.5691C123.079 61.8245 124.704 61.5537 126.261 61.8245C126.599 61.8922 126.938 61.7568 127.073 61.3507C127.141 61.0122 126.938 60.606 126.599 60.5383C125.448 60.3353 124.23 60.403 123.079 60.606C123.215 60.403 123.35 60.1999 123.485 59.9968C123.688 59.726 123.553 59.2522 123.282 59.1168C122.538 58.7106 121.725 58.5075 120.913 58.5752C120.981 58.4398 121.048 58.3721 121.116 58.2368C121.251 57.966 121.251 57.6275 120.981 57.4244C120.304 56.7475 119.491 56.409 118.679 55.9352C118.273 55.7321 117.867 55.4613 117.528 55.0552C118.002 55.1228 118.544 55.1905 119.018 55.1229C119.83 55.0552 119.83 53.769 119.018 53.8367C118.341 53.9044 117.731 53.8367 117.122 53.6336C117.258 53.2951 117.664 53.0244 118.07 52.889C119.018 52.4828 120.033 52.2797 120.981 51.9413C122.199 51.5351 123.418 51.1966 124.636 50.7905C124.975 50.6551 125.178 50.3166 125.11 49.9781C124.839 48.692 124.027 47.6766 123.35 46.5258C122.741 45.5781 122.402 44.495 122.335 43.3442C122.199 41.0426 123.079 38.8087 124.839 37.3195C126.532 35.9656 128.901 35.424 130.999 35.8979C133.165 36.4394 134.926 37.9964 135.806 40.0272C136.686 41.9903 136.753 45.1719 134.519 46.3227C133.978 46.5935 134.181 47.6089 134.858 47.5412C136.889 47.4058 138.852 47.4735 140.883 47.7443C143.455 49.572 145.756 51.8059 147.381 54.5136C149.141 57.6275 149.953 60.8091 149.547 63.9907Z" fill="#112734"/>
<path d="M130.39 59.3201C130.255 59.2524 130.052 59.1847 129.916 59.2524C129.713 59.3201 129.645 59.3878 129.51 59.5232C128.969 60.2001 128.427 60.9447 127.953 61.6217C127.885 61.7571 127.818 61.9602 127.885 62.0955C127.953 62.2309 128.021 62.434 128.156 62.5017C128.292 62.5694 128.495 62.6371 128.63 62.5694C128.833 62.5017 128.901 62.434 129.036 62.2986C129.578 61.6217 130.119 60.877 130.593 60.2001C130.661 60.0647 130.729 59.8617 130.661 59.7263C130.661 59.5909 130.525 59.3878 130.39 59.3201Z" fill="#112734"/>
<path d="M24.3144 54.0398C23.2313 53.4983 21.9451 52.686 21.539 51.5352C21.2005 50.6552 21.4036 49.5044 22.2836 49.0305C23.0282 48.6244 22.3513 47.5413 21.6067 47.8797C20.2528 48.5567 19.8466 50.3167 20.2528 51.6706C20.7267 53.2952 22.2159 54.3783 23.7052 55.1229C24.3821 55.5291 25.059 54.446 24.3144 54.0398Z" fill="#112734"/>
<path d="M20.0499 52.2121C19.9822 52.0768 19.8468 51.9414 19.6438 51.9414C19.5084 51.8737 19.3053 51.9414 19.1699 52.0091C19.0345 52.0767 18.8991 52.2121 18.8991 52.4152C18.8314 52.5506 18.8991 52.7537 18.9668 52.8891C19.3053 53.3629 19.5761 53.8368 19.9145 54.2429C19.9822 54.3783 20.1176 54.5137 20.3207 54.5137C20.4561 54.5814 20.6592 54.5137 20.7945 54.446C20.9299 54.3783 21.0653 54.2429 21.0653 54.0399C21.133 53.9045 21.0653 53.7014 20.9976 53.566C20.7269 53.1599 20.3884 52.686 20.0499 52.2121Z" fill="#112734"/>
</g>
<defs>
<clipPath id="clip0_25_2">
<rect width="152" height="140" fill="white"/>
</clipPath>
</defs>
</svg>
