<svg width="118" height="108" viewBox="0 0 118 108" fill="none" xmlns="http://www.w3.org/2000/svg">
<path d="M101.913 14.1695H97.0988V9.35543C97.0988 8.94669 96.7355 8.58337 96.3267 8.58337H93.5564C93.1477 8.58337 92.7843 8.94669 92.7843 9.35543V14.1695H87.9703C87.5616 14.1695 87.1982 14.5328 87.1982 14.9415V17.7119C87.1982 18.1206 87.5616 18.4839 87.9703 18.4839H92.7843V23.2979C92.7843 23.7067 93.1477 24.07 93.5564 24.07H96.3267C96.7355 24.07 97.0988 23.7067 97.0988 23.2979V18.4839H101.913C102.322 18.4839 102.685 18.1206 102.685 17.7119V14.9415C102.685 14.5328 102.367 14.1695 101.913 14.1695Z" fill="#FFBD00"/>
<path d="M8.03852 90.2403H5.40443V87.6063C5.40443 87.3792 5.22277 87.1975 4.99569 87.1975H3.45157C3.22449 87.1975 3.04283 87.3792 3.04283 87.6063V90.2403H0.408735C0.181659 90.2403 0 90.422 0 90.6491V92.1932C0 92.4203 0.181659 92.6019 0.408735 92.6019H3.04283V95.236C3.04283 95.4631 3.22449 95.6448 3.45157 95.6448H4.99569C5.22277 95.6448 5.40443 95.4631 5.40443 95.236V92.6019H8.03852C8.2656 92.6019 8.44726 92.4203 8.44726 92.1932V90.6491C8.49268 90.422 8.31102 90.2403 8.03852 90.2403Z" fill="#FFBD00"/>
<path d="M18.5291 74.572H14.9867V71.0296C14.9867 70.7117 14.7142 70.4846 14.4417 70.4846H12.398C12.0801 70.4846 11.853 70.7571 11.853 71.0296V74.572H8.3106C7.99269 74.572 7.76562 74.8445 7.76562 75.117V77.1607C7.76562 77.4786 8.03811 77.7057 8.3106 77.7057H11.853V81.2481C11.853 81.566 12.1255 81.7931 12.398 81.7931H14.4417C14.7596 81.7931 14.9867 81.5206 14.9867 81.2481V77.7057H18.5291C18.847 77.7057 19.074 77.4332 19.074 77.1607V75.117C19.074 74.8445 18.847 74.572 18.5291 74.572Z" fill="#FFBD00"/>
<path d="M117.081 2.90659H114.584V0.408749C114.584 0.181673 114.402 0 114.175 0H112.722C112.494 0 112.313 0.181673 112.313 0.408749V2.90659H109.815C109.588 2.90659 109.406 3.08825 109.406 3.31533V4.76861C109.406 4.99569 109.588 5.17736 109.815 5.17736H112.313V7.67521C112.313 7.90228 112.494 8.08394 112.722 8.08394H114.175C114.402 8.08394 114.584 7.90228 114.584 7.67521V5.17736H117.081C117.309 5.17736 117.49 4.99569 117.49 4.76861V3.31533C117.49 3.08825 117.309 2.90659 117.081 2.90659Z" fill="#FFBD00"/>
<path d="M81.4295 9.40098H77.8871V5.85859C77.8871 5.54068 77.6146 5.3136 77.3421 5.3136H75.2984C74.9805 5.3136 74.7534 5.5861 74.7534 5.85859V9.40098H71.211C70.8931 9.40098 70.666 9.67348 70.666 9.94597V11.9897C70.666 12.3076 70.9385 12.5346 71.211 12.5346H74.7534V16.077C74.7534 16.395 75.0259 16.622 75.2984 16.622H77.3421C77.66 16.622 77.8871 16.3495 77.8871 16.077V12.5801H81.4295C81.7474 12.5801 81.9745 12.3076 81.9745 12.0351V9.99138C81.9745 9.62805 81.7474 9.40098 81.4295 9.40098Z" fill="#FFBD00"/>
<path d="M63.7631 87.5156C63.8086 87.4247 63.8086 87.3339 63.7631 87.2431V51.4104V20.1192C63.7631 20.1192 63.7631 20.1192 63.7631 20.0738C63.7631 17.3488 62.0828 14.6239 59.4487 13.0798C56.5421 11.3994 53.2722 11.4448 51.0014 11.7628C47.2774 12.2623 44.0529 13.8973 41.9183 16.3043C39.5567 18.9384 38.6484 22.5716 39.5113 25.6598C34.879 24.7061 29.8833 26.114 26.2046 29.5202C22.3897 33.0171 20.7548 37.9674 21.7993 42.736C22.3897 45.5518 24.1155 47.9134 26.3863 49.0942C25.5234 50.2296 24.933 51.6828 24.6605 53.2724C24.388 54.9073 24.5243 56.5423 25.0238 57.9956C24.9784 57.9956 24.933 57.9956 24.933 58.041C20.8002 60.7205 18.2569 65.3983 18.1207 70.5302C18.0299 75.7076 20.3915 80.4762 24.4334 83.3374C25.4326 84.064 28.4754 85.926 31.6999 85.926C32.3357 85.926 32.9715 85.8352 33.6073 85.699C33.5619 85.8806 33.5165 86.0623 33.5165 86.2439C33.1532 89.0143 33.8798 92.0571 35.5602 94.8274C38.4214 99.4598 42.3271 102.775 46.2782 103.82C48.1857 104.319 50.0477 104.592 51.8189 104.592C55.0434 104.592 57.9954 103.774 60.2207 102.23C62.1736 100.868 63.854 97.4161 63.7177 95.1454V87.5156H63.7631ZM59.6758 101.458C56.4513 103.729 51.5464 104.274 46.5053 102.911C42.7812 101.912 39.1026 98.7786 36.3777 94.3279C34.7881 91.7392 34.1069 88.9235 34.4702 86.3802C34.879 83.519 36.6502 81.0666 39.0118 80.022C39.1026 79.9766 39.1934 79.9312 39.2388 79.8404C39.8292 80.3399 40.5105 80.7941 41.2371 81.0666C42.2362 81.4753 43.3262 81.7024 44.4162 81.7024C46.0966 81.7024 47.7315 81.2028 49.094 80.2945C49.321 80.1583 49.3665 79.8404 49.2302 79.6133C49.094 79.3862 48.7761 79.3408 48.549 79.4771C46.5507 80.8395 43.8258 81.112 41.555 80.1583C39.3297 79.2046 37.6039 77.07 37.1952 74.663C36.7864 72.256 37.6947 69.6673 39.4659 68.0324C39.6476 67.8507 39.693 67.5328 39.5113 67.3511C39.3297 67.1695 39.0118 67.1241 38.8301 67.3057C36.7864 69.1678 35.7873 72.1198 36.2414 74.7993C36.5139 76.4342 37.3314 77.9329 38.4668 79.1137C36.3323 80.0675 34.6065 82.1112 33.8344 84.5182C33.8344 84.5182 33.8344 84.5182 33.789 84.5182C30.2012 85.8352 26.0684 83.292 24.8876 82.4745C21.0727 79.8404 18.8928 75.3443 18.9836 70.4848C19.0744 65.6708 21.436 61.3109 25.2963 58.8131C25.2963 58.8131 25.2963 58.8585 25.3417 58.8585C26.25 60.7205 27.7942 62.083 29.6108 62.6734C30.2466 62.855 30.8824 62.9459 31.5182 62.9459C32.9261 62.9459 34.2886 62.4917 35.2877 61.6288C35.4694 61.4472 35.5148 61.1747 35.3331 60.9476C35.1514 60.7659 34.879 60.7205 34.6519 60.9022C33.4257 61.9467 31.5182 62.2646 29.8833 61.7197C28.3391 61.2201 26.9313 59.9939 26.1592 58.4043C25.4326 56.9056 25.2055 55.1344 25.478 53.3178C25.7959 51.2741 26.795 49.4575 28.2029 48.3675C29.747 47.1413 31.8816 46.8234 33.4711 47.5955C33.6982 47.6863 34.0161 47.5955 34.1069 47.3684C34.1977 47.1413 34.1069 46.8234 33.8798 46.7326C31.9724 45.8243 29.4291 46.1876 27.6125 47.5955C27.3854 47.7771 27.1583 48.0042 26.9313 48.2313C24.7967 47.2322 23.2072 45.0522 22.6168 42.4181C21.6631 37.9674 23.2072 33.3805 26.7042 30.1105C30.3374 26.7952 35.2423 25.4782 39.7384 26.6136C38.4214 28.3394 38.2397 30.8372 39.3297 32.7447C39.4205 32.8809 39.5567 32.9717 39.7384 32.9717C39.8292 32.9717 39.9201 32.9717 39.9655 32.9263C40.1926 32.7901 40.2834 32.5176 40.1472 32.2905C39.148 30.5647 39.4659 28.1123 40.9192 26.7044C42.3725 25.2965 44.8249 25.0695 46.5053 26.1594C46.7324 26.2957 47.0049 26.2503 47.1865 26.0232C47.3228 25.7961 47.2773 25.5236 47.0503 25.3419C45.052 24.0703 42.2817 24.252 40.465 25.8415C40.4196 25.8415 40.4196 25.8415 40.3742 25.8415C40.3742 25.7961 40.3742 25.7507 40.3742 25.7053C39.4205 22.8441 40.238 19.3925 42.4633 16.8493C44.4616 14.6239 47.459 13.1252 50.956 12.6256C53.0451 12.3532 56.1334 12.3077 58.7675 13.8519C61.1745 15.2597 62.7186 17.803 62.6278 20.2554V20.3008V33.7438C60.3116 34.2888 57.95 34.1525 55.9971 33.3351C53.8172 32.3813 52.1368 30.5647 51.5918 28.4756C51.0014 26.2503 51.7281 23.7978 53.363 22.4354C53.5447 22.2537 53.5901 21.9812 53.4084 21.7541C53.2268 21.5271 52.9543 21.5271 52.7272 21.7087C50.7743 23.3437 49.9569 26.1594 50.6381 28.7481C51.2739 31.1097 53.136 33.1534 55.5884 34.2434C56.86 34.7883 58.3133 35.0608 59.812 35.0608C60.7203 35.0608 61.6286 34.97 62.5823 34.7429V51.2287C61.5378 53.7265 58.5404 55.5886 55.8609 55.3615C53.1814 55.1344 50.7289 52.9999 50.1385 50.3658C51.1377 49.4121 51.9551 48.2313 52.3639 46.8688C53.363 43.826 52.4547 40.329 50.1385 38.1491C49.9569 37.9674 49.639 37.9674 49.4573 38.1491C49.2756 38.3307 49.2756 38.6486 49.4573 38.8303C51.4556 40.7377 52.2731 43.9168 51.4102 46.5509C50.5473 49.185 48.004 51.2741 45.2791 51.6374C42.5087 52.0008 39.5567 50.5929 38.058 48.2313C37.9218 48.0042 37.6039 47.9588 37.3768 48.095C37.1497 48.2313 37.1043 48.5492 37.2406 48.7763C38.7847 51.1833 41.555 52.6366 44.3708 52.6366C44.6887 52.6366 45.052 52.6366 45.3699 52.5912C46.7778 52.4095 48.0948 51.8645 49.2302 51.0016C50.0477 53.8628 52.6818 56.0427 55.6792 56.2698C55.8609 56.2698 56.0425 56.2698 56.1788 56.2698C58.5404 56.2698 60.9928 54.9528 62.4461 53.0453V85.8806C60.2207 83.7007 56.6783 82.9286 53.8172 84.064C50.5019 85.3811 48.3219 89.1959 48.9123 92.7383C48.9577 92.9654 49.1394 93.1471 49.3665 93.1471C49.4119 93.1471 49.4119 93.1471 49.4573 93.1471C49.7298 93.1017 49.9114 92.8746 49.866 92.6021C49.3665 89.5139 51.2739 86.1531 54.1805 84.9723C57.0417 83.8369 60.6295 84.8815 62.4915 87.3339V94.9637C62.9002 96.962 61.4924 100.186 59.6758 101.458Z" fill="#FFBD00"/>
<path d="M52.5908 72.3924C54.9978 72.3924 57.4502 70.9845 58.5856 68.8954C59.8572 66.5792 59.6301 63.5364 58.0406 61.4473C57.8589 61.2202 57.5864 61.1748 57.3594 61.3565C57.1323 61.5381 57.0869 61.8106 57.2685 62.0377C58.631 63.8089 58.8581 66.443 57.7681 68.4413C56.6782 70.3941 54.362 71.6658 52.0912 71.4387C49.8658 71.2116 47.7767 69.5766 47.0955 67.4421C47.0047 67.1696 46.7322 67.0334 46.5051 67.1242C46.2326 67.215 46.0964 67.4876 46.1872 67.7146C47.0047 70.2125 49.4117 72.1199 52.0004 72.347C52.2274 72.3924 52.4091 72.3924 52.5908 72.3924Z" fill="#FFBD00"/>
<path d="M105.772 58.0866C105.727 58.0866 105.682 58.0412 105.682 58.0412C106.181 56.5879 106.317 54.953 106.045 53.318C105.772 51.7285 105.182 50.2752 104.319 49.1398C106.59 47.959 108.316 45.5974 108.906 42.7816C109.951 38.013 108.316 33.0628 104.501 29.5658C100.822 26.1596 95.8264 24.7517 91.194 25.7055C92.0569 22.6172 91.1486 18.984 88.787 16.3499C86.6525 13.9429 83.428 12.3533 79.704 11.8084C77.4786 11.4904 74.1633 11.4905 71.2567 13.1254C68.5772 14.6695 66.9423 17.3944 66.9423 20.1194C66.9423 20.1194 66.9423 20.1194 66.9423 20.1648V51.456V87.2887C66.8968 87.3795 66.8968 87.4703 66.9423 87.5612V95.191C66.806 97.4617 68.4864 100.913 70.4392 102.276C72.6646 103.82 75.6166 104.637 78.8411 104.637C80.6577 104.637 82.5197 104.365 84.3817 103.865C88.3329 102.775 92.2386 99.5054 95.0998 94.8731C96.7802 92.1027 97.5068 89.0599 97.1435 86.2896C97.0981 86.1079 97.0981 85.9262 97.0526 85.7446C97.6885 85.9262 98.3243 85.9716 98.9601 85.9716C102.185 85.9716 105.227 84.0642 106.227 83.383C110.314 80.5672 112.676 75.7532 112.539 70.5758C112.494 65.4439 109.951 60.7661 105.772 58.0866ZM105.682 82.6109C104.501 83.4284 100.368 86.0171 96.7801 84.6546C96.7801 84.6546 96.7801 84.6546 96.7347 84.6546C95.9627 82.2476 94.2369 80.2039 92.1024 79.2502C93.2377 78.0694 94.0552 76.5252 94.3277 74.9357C94.7819 72.2108 93.7827 69.3042 91.739 67.4422C91.5574 67.2605 91.2395 67.2605 91.0578 67.4876C90.8761 67.6693 90.8761 67.9872 91.1032 68.1688C92.8744 69.8038 93.7827 72.3925 93.374 74.7995C92.9652 77.2065 91.2395 79.341 89.0141 80.2947C86.7888 81.2484 84.0638 80.9759 82.0201 79.6135C81.7931 79.4772 81.5206 79.5227 81.3389 79.7498C81.2027 79.9768 81.2481 80.2493 81.4752 80.431C82.8376 81.3393 84.518 81.8388 86.153 81.8388C87.2429 81.8388 88.3329 81.6118 89.332 81.203C90.0587 80.8851 90.7399 80.4764 91.3303 79.9768C91.3757 80.0677 91.4665 80.1131 91.5574 80.1585C93.919 81.1576 95.6902 83.6555 96.0989 86.5166C96.4622 89.0599 95.781 91.8756 94.1915 94.4643C91.4666 98.915 87.7879 102.049 84.0638 103.048C79.0681 104.41 74.1179 103.865 70.8934 101.595C69.0768 100.323 67.6689 97.0984 67.8051 95.3272V87.5158C69.6218 85.0179 73.2096 83.9734 76.1161 85.1542C79.0227 86.335 80.9302 89.6957 80.4306 92.7839C80.3852 93.0564 80.5669 93.2835 80.8394 93.3289C80.8848 93.3289 80.8848 93.3289 80.9302 93.3289C81.1573 93.3289 81.3843 93.1473 81.3843 92.9202C81.9293 89.3778 79.7948 85.5629 76.4795 84.2459C73.5729 83.1105 70.0305 83.8825 67.8506 86.0625V53.2272C69.3039 55.1346 71.8017 56.4516 74.1179 56.4516C74.2995 56.4516 74.4812 56.4516 74.6174 56.4516C77.5694 56.1792 80.2035 53.9992 81.0664 51.1835C82.2018 52.001 83.5189 52.5914 84.9267 52.773C85.2446 52.8184 85.608 52.8184 85.9259 52.8184C88.7416 52.8184 91.512 51.3197 93.0561 48.9581C93.1923 48.731 93.1469 48.4585 92.9198 48.2769C92.6928 48.1406 92.4203 48.1861 92.2386 48.4132C90.7399 50.7747 87.7879 52.1372 85.0176 51.8193C82.2472 51.456 79.7494 49.3669 78.8865 46.7328C78.0236 44.0987 78.8411 40.9196 80.8394 39.0122C81.021 38.8305 81.021 38.5126 80.8394 38.3309C80.6577 38.1493 80.3398 38.1493 80.1581 38.3309C77.8419 40.5109 76.9336 44.0079 77.9328 47.0507C78.3869 48.3677 79.159 49.5939 80.1581 50.5477C79.5677 53.1817 77.1153 55.3163 74.4358 55.5433C71.7563 55.7704 68.7589 53.9084 67.7143 51.4106V34.9248C68.6226 35.1519 69.5763 35.2427 70.4847 35.2427C71.9834 35.2427 73.4367 34.9702 74.7083 34.4252C77.1607 33.3806 79.0228 31.337 79.6586 28.9299C80.3852 26.3413 79.5223 23.4801 77.5694 21.8906C77.3878 21.7089 77.0699 21.7543 76.8882 21.936C76.7066 22.1176 76.752 22.4356 76.9336 22.6172C78.5686 23.9797 79.2952 26.4775 78.7048 28.6575C78.1144 30.7466 76.4795 32.5632 74.2995 33.5169C72.3467 34.3344 69.9851 34.516 67.6689 33.9256V20.4827V20.4373C67.5327 17.9848 69.0768 15.3962 71.5292 14.0337C74.2087 12.4896 77.2515 12.535 79.3407 12.8075C82.8376 13.3071 85.8351 14.8058 87.8333 17.0311C90.0587 19.529 90.8761 23.0259 89.9224 25.8871C89.9224 25.9325 89.9224 25.978 89.9224 26.0234C89.877 26.0234 89.877 26.0234 89.8316 26.0234C88.015 24.4792 85.2446 24.2522 83.2464 25.5238C83.0193 25.66 82.9739 25.978 83.1101 26.205C83.2464 26.4321 83.5643 26.4775 83.7914 26.3413C85.4717 25.2513 87.9241 25.4784 89.3774 26.8863C90.8307 28.2941 91.1486 30.7011 90.1495 32.4723C90.0133 32.6994 90.1041 33.0173 90.3312 33.1082C90.422 33.1536 90.5128 33.1536 90.5583 33.1536C90.7399 33.1536 90.8761 33.0627 90.967 32.9265C92.1024 31.0191 91.8753 28.5212 90.5583 26.7954C95.0544 25.66 100.005 26.9771 103.592 30.2924C107.135 33.5623 108.679 38.1493 107.68 42.6C107.089 45.2341 105.5 47.3686 103.365 48.4132C103.138 48.1861 102.911 47.959 102.684 47.7773C100.868 46.324 98.3243 46.0061 96.4168 46.9144C96.1897 47.0053 96.0535 47.3232 96.1897 47.5502C96.2806 47.7773 96.5985 47.9136 96.8256 47.7773C98.4151 47.0053 100.55 47.3232 102.094 48.5494C103.502 49.6394 104.455 51.456 104.819 53.4996C105.091 55.3163 104.864 57.1329 104.137 58.5862C103.365 60.1757 101.957 61.4019 100.413 61.9015C98.7784 62.4465 96.9164 62.0832 95.6448 61.084C95.4631 60.9024 95.1452 60.9478 94.9635 61.1295C94.7819 61.3111 94.8273 61.629 95.009 61.8107C96.0081 62.6736 97.416 63.1277 98.7784 63.1277C99.4142 63.1277 100.05 63.0369 100.686 62.8552C102.502 62.2648 104.092 60.8569 104.955 59.0403C104.955 59.0403 104.955 58.9949 105 58.9949C108.861 61.4928 111.222 65.8526 111.313 70.6667C111.722 75.4807 109.496 79.9314 105.682 82.6109Z" fill="#FFBD00"/>
<path d="M84.2012 67.1242C83.9287 67.0334 83.6562 67.1696 83.6108 67.4421C82.8841 69.5766 80.8405 71.2116 78.6151 71.4387C76.3898 71.6658 74.0282 70.3941 72.9382 68.4413C71.8482 66.4884 72.0299 63.8543 73.4378 62.0377C73.6194 61.8106 73.574 61.5381 73.3469 61.3565C73.1199 61.1748 72.8474 61.2202 72.6657 61.4473C71.0762 63.5364 70.8491 66.5792 72.1207 68.8954C73.3015 71.0299 75.7085 72.3924 78.1155 72.3924C78.2972 72.3924 78.5243 72.3924 78.7059 72.347C81.34 72.1199 83.7016 70.2125 84.5191 67.7146C84.5645 67.4876 84.4283 67.215 84.2012 67.1242Z" fill="#FFBD00"/>
<path d="M114.22 35.9691H107.317V29.0659C107.317 28.4755 106.818 27.976 106.227 27.976H102.231C101.64 27.976 101.141 28.4755 101.141 29.0659V35.9691H94.2374C93.647 35.9691 93.1475 36.4686 93.1475 37.059V41.0556C93.1475 41.646 93.647 42.1455 94.2374 42.1455H101.141V49.0487C101.141 49.6391 101.64 50.1387 102.231 50.1387H106.227C106.818 50.1387 107.317 49.6391 107.317 49.0487V42.1455H114.22C114.811 42.1455 115.31 41.646 115.31 41.0556V37.1044C115.31 36.4686 114.811 35.9691 114.22 35.9691Z" fill="#FFBD00"/>
<path d="M31.155 84.518H26.341V79.704C26.341 79.2952 25.9776 78.9319 25.5689 78.9319H22.7986C22.3898 78.9319 22.0265 79.2952 22.0265 79.704V84.518H17.2125C16.8037 84.518 16.4404 84.8813 16.4404 85.29V88.0604C16.4404 88.4691 16.8037 88.8325 17.2125 88.8325H22.0265V93.6465C22.0265 94.0552 22.3898 94.4185 22.7986 94.4185H25.5689C25.9776 94.4185 26.341 94.0552 26.341 93.6465V88.8325H31.155C31.5637 88.8325 31.9271 88.4691 31.9271 88.0604V85.29C31.9271 84.8813 31.5637 84.518 31.155 84.518Z" fill="#FFBD00"/>
</svg>
