<svg width="98" height="106" viewBox="0 0 98 106" fill="none" xmlns="http://www.w3.org/2000/svg">
<path d="M31.8349 105.497H30.6612V101.976C30.1448 91.4599 25.5909 87.0938 22.9149 85.4037C19.7225 83.385 18.8775 83.1972 16.3893 82.6808C15.6851 82.5399 14.84 82.3522 13.7602 82.0705C13.2908 81.9766 12.8213 81.8357 12.3049 81.7418C10.2861 81.2724 8.22046 80.8029 6.29563 79.864C3.4788 78.5025 1.55396 76.3899 0.990595 73.9956C0.380282 71.5074 1.41312 68.9253 2.35206 66.6718C2.4929 66.3432 2.63374 66.0145 2.72764 65.6859C3.00932 64.8878 2.91543 63.9958 2.4929 63.2916C2.35206 63.1038 2.21122 62.916 2.07038 62.7282C1.83565 62.4466 1.60091 62.1649 1.41312 61.8362C0.943649 60.9442 0.896702 59.8645 1.36617 58.9725C1.60091 58.503 1.97648 58.1274 2.44596 57.7988C2.11733 57.564 1.88259 57.2354 1.6948 56.9068C1.13144 55.827 1.22533 54.7942 1.92954 54.1839C3.05627 53.2449 4.04216 52.3529 4.32385 51.1792C4.41774 50.8037 4.41774 50.475 4.32385 50.0525C3.19711 49.3013 1.97649 48.4563 1.13144 47.2826C0.0516531 45.8742 -0.276978 44.0902 0.239441 42.7287C0.75586 41.3673 2.02343 40.4753 3.00932 39.7711C3.85437 39.2077 4.69942 38.6443 5.49753 38.1279C7.79794 36.6726 9.95751 35.2641 11.6007 33.1985C12.9152 31.5553 13.6194 29.5835 14.3705 27.5179C14.6522 26.6728 14.9809 25.7808 15.3564 24.9827C17.1404 20.8044 20.0042 17.2364 22.7741 13.7623C25.8726 9.86573 31.694 6.2508 33.3841 5.21796C42.1163 -0.0401214 49.2523 -0.227911 56.9516 0.100719C65.8246 0.476297 74.369 3.29313 80.9886 8.08174C85.6363 11.4619 89.5799 16.0158 92.3967 21.2269C95.2136 26.4381 96.8567 32.2595 97.0914 37.9871C97.3262 43.7146 96.2464 49.63 93.899 55.1228C91.5517 60.5687 88.0306 65.4512 83.7115 69.2069C80.0027 72.4463 77.7492 74.6528 74.4629 78.4086C68.7354 84.9342 67.4208 94.9809 71.3174 102.774L70.2846 103.291C66.2002 95.0748 67.5617 84.5117 73.6179 77.6574C76.9042 73.9017 79.2046 71.6482 82.9604 68.3619C87.1856 64.7 90.6127 59.9584 92.8662 54.7003C95.1197 49.3952 96.1994 43.6677 95.9647 38.081C95.73 32.4943 94.1338 26.9076 91.4108 21.8373C88.6879 16.767 84.8382 12.3539 80.3313 9.11457C73.8995 4.4668 65.543 1.69692 56.9047 1.32134C47.7969 0.945768 41.7407 1.60303 33.9945 6.29774C32.3513 7.28363 26.6707 10.8516 23.713 14.6074C20.9901 17.9876 18.1733 21.5086 16.4832 25.5461C16.1545 26.3442 15.8259 27.2362 15.5442 28.0343C14.7931 30.1 14.0419 32.2595 12.5865 34.0435C10.8495 36.25 8.4552 37.7523 6.20173 39.2077C5.40363 39.7241 4.55858 40.2875 3.76047 40.8039C2.68069 41.5551 1.7887 42.2593 1.41312 43.1982C0.943649 44.4188 1.46007 45.7803 2.11733 46.6254C2.91543 47.7052 4.08911 48.4563 5.21584 49.2075C5.30973 49.3014 5.40363 49.3952 5.45058 49.5361C5.63836 50.2403 5.68531 50.8037 5.49753 51.4609C5.075 53.1041 3.71353 54.2308 2.6807 55.0759C2.39901 55.3106 2.4929 55.874 2.72764 56.3434C2.96237 56.8129 3.47879 57.1415 3.99521 57.2354C4.27689 57.2824 4.51163 57.5171 4.51163 57.7988C4.51163 58.0805 4.27689 58.3622 3.99521 58.4091C3.3849 58.503 2.63375 59.0194 2.35206 59.5358C2.07038 60.0992 2.07038 60.7565 2.39901 61.3198C2.53985 61.5546 2.72764 61.7893 2.91543 62.024C3.10322 62.2118 3.24406 62.4466 3.43185 62.6813C4.08911 63.7141 4.22995 65.0286 3.80742 66.1554C3.66658 66.484 3.52574 66.8126 3.43185 67.1413C2.53985 69.3478 1.60091 71.6482 2.16427 73.7608C2.68069 75.8265 4.37079 77.6574 6.85899 78.8781C8.64298 79.7231 10.7087 80.1926 12.6335 80.6621C13.103 80.756 13.6194 80.8968 14.0889 80.9907C15.1217 81.2254 15.9667 81.4132 16.6709 81.601C19.253 82.1644 20.192 82.3521 23.5722 84.5117C26.6707 86.4366 28.9242 89.5351 30.3326 93.7134C31.1776 96.2016 31.694 99.0653 31.8349 102.023C31.8349 102.023 31.8349 102.023 31.8349 102.07V105.497Z" fill="#FFBD00"/>
<path d="M28.5963 43.2921C27.2349 43.2921 25.9204 43.0105 24.6528 42.4471C22.2115 41.3673 20.1459 39.2077 19.0191 36.5787C18.8783 36.297 19.0191 35.9214 19.3008 35.7806C19.5825 35.6398 19.9581 35.7806 20.0989 36.0623C21.1317 38.4566 23.0096 40.3345 25.1692 41.3204C27.3288 42.2593 29.817 42.3062 31.9765 41.3673C32.2582 41.2265 32.6338 41.3673 32.7277 41.6959C32.8685 41.9776 32.7277 42.3532 32.3991 42.4471C31.1784 43.0574 29.8639 43.2921 28.5963 43.2921Z" fill="#FFBD00"/>
<path d="M86.3876 36.9543C85.965 36.3439 85.4486 35.7806 84.8383 35.2642C86.4345 33.9966 87.2326 31.884 86.9509 29.7713C86.6693 27.7057 85.3078 25.7339 83.383 24.6072C81.9276 23.7621 80.1905 23.3865 78.4535 23.4804C79.2047 22.2129 79.4863 20.6636 79.2516 19.1613C78.9699 17.4242 78.031 15.6872 76.5756 14.2788C75.308 13.0582 73.6649 12.1192 71.7401 11.4619C69.6274 10.7577 67.5148 10.523 65.6369 10.8047C63.5713 11.1333 61.6464 12.1192 60.4258 13.5746C60.238 13.5276 60.0502 13.4807 59.8624 13.4337C59.9094 12.4478 59.5807 11.3681 58.8765 10.4761C58.2193 9.58406 57.2803 8.83291 56.1066 8.2226C54.3227 7.3306 52.3978 6.90808 50.6138 7.09586C48.642 7.28365 46.8581 8.22259 45.6844 9.58406C44.6046 10.8986 44.1351 12.6356 44.4168 14.2318C42.8675 13.3398 40.9897 13.0582 39.2526 13.5276C37.2808 14.044 35.6377 15.5464 35.0274 17.4242C34.4171 19.3021 34.8396 21.5556 36.1541 23.1048C36.248 23.1987 36.3419 23.3396 36.4358 23.4335C34.7926 24.701 33.8537 26.8137 34.0884 28.8794C34.3232 31.0859 35.9194 33.1046 38.032 33.9966C38.1259 34.0435 38.1728 34.0435 38.2667 34.0905C39.1587 34.4191 40.2855 34.56 41.2244 34.1374C40.8958 35.5928 41.2713 37.2359 42.2572 38.5505C43.0084 39.5364 44.0882 40.2875 45.3557 40.757C45.9191 40.9448 46.4825 41.0856 47.0928 41.1795C48.3604 41.3203 49.534 41.1326 50.5199 40.6161C50.9425 40.3814 51.318 40.1467 51.6467 39.818C51.6936 41.1326 52.0692 42.3532 52.8203 43.433C53.5715 44.5128 54.6513 45.3578 55.8719 45.7803C56.3414 45.9681 56.8578 46.062 57.3742 46.109C57.3742 46.1559 57.4212 46.1559 57.4681 46.2029C60.0972 48.3155 61.7873 51.5548 62.0689 54.7942V54.935C62.1159 55.4514 62.1628 56.0618 62.4915 56.5782C62.7262 56.9538 63.1018 57.1885 63.5243 57.3763C63.9468 57.5171 64.4633 57.5641 64.9327 57.4232C65.543 57.2354 66.0595 56.766 66.5289 56.0148C66.6228 55.874 66.7167 55.6862 66.8106 55.4984C66.9515 55.2637 67.0923 54.982 67.2801 54.7942C67.9843 55.4514 68.8763 56.0148 69.9091 56.3904C70.003 56.4373 70.0969 56.4373 70.1908 56.4843C71.5053 56.9068 72.8198 57.0007 73.9466 56.766C75.355 56.4843 76.6226 55.5923 77.3737 54.4186C78.1249 53.2919 78.4066 51.8365 78.1718 50.475H78.2188C79.6272 50.1464 80.707 48.9727 80.9886 47.5643C82.1154 47.7991 83.3829 47.5643 84.4627 46.954C85.4486 46.3906 86.2467 45.5456 86.8101 44.4658C88.0777 42.1654 87.9368 39.2077 86.3876 36.9543ZM65.7308 55.4984C65.3552 56.0618 64.9797 56.3904 64.6041 56.5312C64.1346 56.6721 63.5243 56.4843 63.2896 56.1087C63.1018 55.7801 63.0548 55.3575 63.0079 54.8881V54.7472C62.7262 51.5079 61.1769 48.3155 58.6887 46.062C59.6746 45.9212 60.6136 45.4986 61.3178 44.8883C61.3178 45.3578 61.4117 45.8273 61.5525 46.2498C61.975 47.5643 62.9609 48.785 64.2755 49.5361C64.651 49.7239 64.9797 49.9117 65.3552 50.0525C65.4491 50.0995 65.59 50.1464 65.6839 50.1464C65.4022 51.414 65.7308 52.8693 66.6228 54.043C66.3881 54.3717 66.2003 54.7003 66.0125 54.982C65.9186 55.2167 65.8247 55.3576 65.7308 55.4984ZM86.012 44.0902C85.4956 45.0292 84.7914 45.7334 83.9933 46.2029C83.1013 46.7193 82.0684 46.8601 81.1295 46.6723H81.0825C81.0356 45.6395 80.5661 44.6067 79.768 43.8086C80.5661 42.9635 80.8948 41.7429 80.66 40.6161C80.6131 40.3814 80.3783 40.2406 80.0967 40.2406C79.8619 40.2875 79.6741 40.5222 79.768 40.757C80.0028 41.8837 79.4863 43.1043 78.5005 43.7146C77.5146 44.278 76.1061 44.1841 75.1672 43.4799C74.9794 43.3391 74.6977 43.3391 74.5099 43.5269C74.3691 43.7147 74.3691 43.9963 74.6038 44.1372C74.9325 44.3719 75.2611 44.5597 75.6367 44.7005C76.7165 45.0761 77.984 45.0292 78.9699 44.4658C79.0169 44.4189 79.0638 44.4189 79.1108 44.3719C79.9089 45.17 80.3314 46.3437 80.1436 47.3296C79.9558 48.4094 79.0638 49.3483 78.031 49.583C76.9512 49.8178 75.7306 49.3483 75.2141 48.4094C75.0733 48.1746 74.7916 48.1277 74.6038 48.2216C74.3691 48.3624 74.3222 48.5972 74.463 48.8319C74.8386 49.4892 75.5428 50.0056 76.2939 50.2873C76.6226 50.4281 76.9981 50.475 77.3737 50.522C77.6085 51.6957 77.3737 52.9163 76.7165 53.9022C76.0592 54.8881 75.0264 55.5923 73.8057 55.874C72.8198 56.0618 71.6931 56.0148 70.5664 55.6392C69.6744 55.3576 68.3599 54.7472 67.4679 53.6205C66.7167 52.6346 66.435 51.414 66.6698 50.3812C67.4209 50.475 68.1721 50.4281 68.8293 50.1464C70.4255 49.5361 71.4114 47.9399 71.0359 46.4376C70.9889 46.2029 70.7072 46.062 70.4725 46.109C70.2377 46.1559 70.0969 46.3906 70.1438 46.6254C70.4255 47.7052 69.6744 48.9258 68.5007 49.3483C67.4209 49.7239 66.0595 49.5361 64.8388 48.8319C63.7121 48.1746 62.867 47.1418 62.5384 46.062C62.1628 44.8883 62.3506 43.6208 63.0079 42.6818C63.1487 42.494 63.1018 42.2123 62.914 42.0715C62.7262 41.9307 62.4445 41.9776 62.2567 42.1654C62.0689 42.4001 61.9281 42.6818 61.7873 43.0104L61.7403 43.0574C61.083 44.4189 59.4868 45.3109 57.8437 45.2639C56.2475 45.217 54.6513 44.325 53.7123 42.9635C52.8203 41.649 52.4917 39.9119 52.8203 38.3157C52.8203 38.2688 52.8203 38.1749 52.8203 38.1279C52.8203 38.081 52.8203 38.081 52.8673 38.034C52.9142 37.7993 52.7734 37.5646 52.5387 37.4707C52.3039 37.4237 52.0222 37.5646 51.9753 37.7993C51.7406 38.6444 51.0833 39.4425 50.1913 39.865C49.3932 40.2875 48.3604 40.4283 47.2806 40.3345C45.5905 40.1467 44.0412 39.3016 43.1023 38.081C42.1164 36.7665 41.8347 35.0764 42.445 33.7149V33.668C42.7267 33.8557 43.0553 33.9966 43.384 34.1374C44.3699 34.4661 45.4966 34.56 46.6703 34.3252C46.905 34.2783 47.0928 34.0435 46.9989 33.8088C46.952 33.5741 46.7172 33.4332 46.4355 33.4802C45.4027 33.668 44.4637 33.621 43.6656 33.3393C42.7737 33.0107 42.0694 32.3534 41.7408 31.6023C41.4122 30.8042 41.6469 29.8652 42.2103 29.3488C42.3981 29.208 42.3981 28.9263 42.2572 28.7385C42.0694 28.5507 41.7878 28.5507 41.6 28.6916C40.708 29.4427 40.4263 30.7572 40.8488 31.884C40.9897 32.3065 41.2713 32.6821 41.6 33.0107C41.5061 33.0107 41.4122 33.0576 41.3183 33.1046C40.5202 33.7619 39.2526 33.5741 38.4076 33.2454C36.6236 32.4943 35.2621 30.7572 35.0274 28.8794C34.8396 27.0484 35.6846 25.1705 37.1869 24.1377C37.6564 24.5133 38.2198 24.7949 38.7831 24.9827C39.7221 25.3114 40.7549 25.4522 41.7408 25.3114C41.9756 25.2644 42.1633 25.0297 42.1164 24.7949C42.0694 24.5602 41.8347 24.3724 41.6 24.4194C39.9099 24.7011 38.032 23.9499 36.9053 22.6354C35.7785 21.3209 35.4029 19.443 35.9663 17.7998C36.4827 16.2036 37.8911 14.8891 39.5812 14.4666C41.2713 13.9971 43.2431 14.3727 44.6515 15.4525C44.8393 15.5933 45.121 15.5933 45.3088 15.4055C45.3557 15.3586 45.4027 15.2647 45.4027 15.1708C45.5435 15.0769 45.5905 14.8891 45.5435 14.7013C45.0741 13.199 45.4496 11.462 46.4825 10.1944C47.4684 8.97375 49.0646 8.17565 50.8016 7.98786C52.3978 7.84702 54.1818 8.17565 55.778 9.0207C56.8578 9.58406 57.6559 10.2413 58.2193 10.9925C58.7826 11.7436 59.0643 12.5887 59.0174 13.3868C58.7357 13.3868 58.454 13.4337 58.1254 13.4807C56.8109 13.8093 55.6841 14.7482 55.2147 16.0158C55.1208 16.2506 55.2616 16.4853 55.4963 16.5792C55.7311 16.6731 56.0128 16.5322 56.0597 16.3445C56.4353 15.4055 57.2803 14.6074 58.3132 14.3727C59.346 14.1379 60.5197 14.4196 61.3178 15.1238C62.1159 15.828 62.5854 16.9078 62.4915 17.9407C62.4445 18.1754 62.6323 18.4101 62.914 18.4571C63.1487 18.504 63.3835 18.3162 63.4304 18.0815C63.5712 16.767 63.0079 15.4055 61.975 14.5135C61.7873 14.3727 61.5995 14.1849 61.3647 14.091C62.4445 12.9173 64.0877 12.1192 65.8717 11.8375C67.6087 11.5558 69.5805 11.7906 71.5053 12.4478C73.2893 13.0582 74.7916 13.9501 75.9653 15.0769C77.2798 16.3445 78.1249 17.8468 78.3596 19.443C78.5943 21.0392 78.1718 22.6823 77.2329 23.856C77.2329 23.856 77.2329 23.856 77.1859 23.856C75.8245 22.4945 73.6649 22.072 71.9278 22.8232C71.6931 22.9171 71.5992 23.1987 71.6931 23.3865C71.787 23.6213 72.0687 23.7152 72.3034 23.6213C73.7118 23.011 75.5897 23.3865 76.6226 24.5602C77.7024 25.6869 77.8901 27.5179 77.139 28.8324C76.9981 29.0202 77.092 29.3019 77.3268 29.4427C77.3737 29.4427 77.3737 29.4897 77.4207 29.4897C77.6084 29.5836 77.8432 29.4897 77.984 29.3019C78.8291 27.8935 78.7352 26.0625 77.8901 24.701C79.6741 24.4194 81.5051 24.748 83.0074 25.593C84.6975 26.5789 85.9181 28.316 86.1528 30.1C86.4345 31.9779 85.6364 33.8557 84.1811 34.9355C82.7726 34.0435 81.1295 33.5741 79.4863 33.668C79.2516 33.668 79.0638 33.9027 79.0638 34.1374C79.0638 34.3722 79.2985 34.56 79.5333 34.56C81.9276 34.4191 84.3688 35.6867 85.6834 37.6115C86.9509 39.3955 87.0918 42.0246 86.012 44.0902Z" fill="#FFBD00"/>
<path d="M56.5769 23.2925C56.9994 24.3254 56.7647 25.5929 56.0135 26.391C55.8257 26.5788 55.8727 26.8605 56.0605 27.0014C56.1074 27.0483 56.1544 27.0953 56.2013 27.0953C56.3891 27.1422 56.5769 27.1422 56.6708 27.0014C57.7036 25.9685 57.9853 24.3254 57.4219 22.9639C56.8586 21.6024 55.4502 20.6165 53.9479 20.5227C52.4455 20.4288 50.9432 21.1799 50.239 22.4475C50.0982 22.6822 50.1921 22.917 50.4268 23.0578C50.6616 23.1986 50.9432 23.1047 51.0371 22.87C51.5536 21.8841 52.7272 21.2738 53.9009 21.3677C55.0276 21.4616 56.1074 22.2597 56.5769 23.2925Z" fill="#FFBD00"/>
<path d="M71.3179 33.6209C71.0832 33.574 70.8485 33.7148 70.7546 33.9496C70.7076 34.1843 70.8485 34.419 71.0832 34.466C72.5855 34.8416 73.9 36.0152 74.3226 37.4237C74.7451 38.879 74.3226 40.5222 73.1958 41.4611C72.0691 42.447 70.2851 42.6817 68.9236 41.9775C68.6889 41.8836 68.4072 41.9306 68.3133 42.1653C68.2194 42.4001 68.3133 42.6348 68.5481 42.7756C68.6889 42.8695 68.8297 42.9165 69.0175 42.9634C70.6137 43.5268 72.5386 43.2451 73.8531 42.1184C75.2146 40.9447 75.7779 38.926 75.2615 37.142C74.7451 35.4519 73.1958 34.0435 71.3179 33.6209Z" fill="#FFBD00"/>
<path d="M68.3131 38.1748C67.2334 38.6443 65.9188 38.5974 64.886 38.034C63.8062 37.4706 63.0551 36.4378 62.8673 35.2641C62.6795 34.2782 62.9612 33.2454 63.6184 32.4473C64.0879 32.8698 64.6043 33.1984 65.2146 33.4332C65.5433 33.574 65.9188 33.6209 66.2944 33.6679C67.6089 33.8087 69.2051 33.2454 69.6277 31.8839C69.7216 31.6492 69.5807 31.4144 69.346 31.3205C69.1112 31.2266 68.8296 31.3675 68.7826 31.6022C68.5009 32.4942 67.3272 32.9167 66.3883 32.8228C65.2616 32.682 64.1818 32.0247 63.6184 31.0389C63.0551 30.053 63.0081 28.7854 63.5245 27.8465C63.6184 27.6117 63.5245 27.377 63.2898 27.2361C63.0551 27.1422 62.7734 27.1892 62.6795 27.4239C62.0692 28.6915 62.1161 30.2408 62.8203 31.4614C62.9142 31.6022 62.9612 31.6961 63.0551 31.837C62.3509 32.6351 61.9753 33.7148 61.9753 34.7946C60.8485 35.7336 59.0176 35.8744 57.75 35.0294C56.4355 34.1843 55.8252 32.4003 56.3886 30.9919C56.4825 30.7572 56.3416 30.5224 56.1069 30.4285C55.8721 30.3347 55.5905 30.4285 55.4966 30.6633C55.2618 31.2266 55.2149 31.837 55.2618 32.4473C54.7454 33.0576 53.9943 33.4801 53.1492 33.6209C52.3511 33.7618 51.4591 33.6209 50.7549 33.1984C50.4732 33.0576 50.0038 32.729 49.8629 32.3064C49.816 32.0717 49.5343 31.9308 49.2995 31.9778C49.0648 32.0247 48.924 32.2595 48.9709 32.4942C49.1587 33.2454 49.816 33.6679 50.2854 33.9496C50.4732 34.0435 50.708 34.1374 50.8957 34.2313C51.6469 34.5129 52.4919 34.6068 53.29 34.466C54.0881 34.3252 54.8393 33.9965 55.4496 33.4801C55.7782 34.3721 56.3416 35.2171 57.1867 35.7336C57.4683 35.9214 57.75 36.0622 58.0787 36.1561C59.3932 36.6256 60.8955 36.4847 62.0692 35.7805C62.3978 37.0481 63.2898 38.2218 64.5104 38.879C64.6982 38.9729 64.886 39.0668 65.1207 39.1607C66.2944 39.5832 67.6559 39.5363 68.7826 39.0668C69.0173 38.9729 69.1112 38.6912 68.9704 38.4565C68.8296 38.1748 68.5479 38.0809 68.3131 38.1748Z" fill="#FFBD00"/>
<path d="M62.0698 22.8231C62.2106 23.0109 62.4923 23.0579 62.727 22.917C64.1354 21.9311 66.3419 22.025 67.6565 23.1987C68.971 24.3724 69.2996 26.485 68.4076 27.9404C68.2668 28.1282 68.3607 28.4098 68.5485 28.5507C68.5954 28.5507 68.5954 28.5976 68.6424 28.5976C68.8301 28.6915 69.0649 28.5976 69.2057 28.4098C70.3324 26.5789 69.9099 23.9968 68.2668 22.5414C66.6236 21.0861 63.9476 20.8983 62.1636 22.1659C61.9289 22.3067 61.9289 22.5884 62.0698 22.8231Z" fill="#FFBD00"/>
<path d="M10.9903 27.2361L10.2861 27.0014C10.38 26.7197 10.4739 26.438 10.5678 26.1563L11.272 26.3911C11.1781 26.6728 11.0842 26.9544 10.9903 27.2361ZM11.5537 25.593L10.8495 25.3582C10.9434 25.0766 11.0373 24.7949 11.1781 24.5132L11.8823 24.7949C11.7415 25.0296 11.6476 25.3113 11.5537 25.593ZM12.211 23.9498L11.5537 23.6681C11.6476 23.3865 11.7884 23.1048 11.9293 22.87L12.5865 23.1517C12.4457 23.4334 12.3049 23.7151 12.211 23.9498ZM12.9152 22.3536L12.2579 22.025C12.3988 21.7433 12.5396 21.5086 12.6335 21.2269L13.2907 21.5555C13.1499 21.8372 13.056 22.1189 12.9152 22.3536ZM13.7133 20.8044L13.056 20.4757C13.1969 20.194 13.3377 19.9593 13.4785 19.6776L14.1358 20.0532C13.995 20.2879 13.8541 20.5696 13.7133 20.8044ZM14.5583 19.3021L13.948 18.9265C14.0889 18.6917 14.2766 18.4101 14.4175 18.1753L15.0278 18.5509C14.887 18.7856 14.7461 19.0673 14.5583 19.3021ZM15.4973 17.7997L14.887 17.3772C15.0278 17.1425 15.2156 16.8608 15.4034 16.6261L16.0137 17.0486C15.8259 17.3303 15.6851 17.565 15.4973 17.7997ZM16.5301 16.3913L15.9198 15.9688C16.1076 15.7341 16.2954 15.4993 16.4362 15.2646L16.9996 15.7341C16.8587 15.9219 16.6709 16.1566 16.5301 16.3913ZM17.5629 14.9829L16.9996 14.5134C17.1874 14.2787 17.3752 14.044 17.5629 13.8092L18.1263 14.2787C17.9385 14.5604 17.7507 14.7482 17.5629 14.9829ZM18.6897 13.6684L18.1263 13.1989C18.3141 12.9642 18.5019 12.7764 18.7366 12.5417L19.3 13.0581C19.0653 13.2459 18.8775 13.4337 18.6897 13.6684ZM19.8634 12.3539L19.3469 11.8375C19.5347 11.6027 19.7695 11.4149 19.9572 11.2271L20.4737 11.7436C20.2859 11.9783 20.0981 12.1661 19.8634 12.3539ZM21.1309 11.1332L20.6145 10.6168C20.8492 10.429 21.037 10.1943 21.2718 10.0065L21.7412 10.5699C21.5534 10.7577 21.3187 10.9455 21.1309 11.1332ZM22.4454 9.95957L21.976 9.39621C22.2107 9.20842 22.4454 9.02063 22.6802 8.83284L23.1497 9.39621C22.868 9.58399 22.6332 9.77178 22.4454 9.95957ZM23.76 8.87978L23.2905 8.31642C23.5252 8.12863 23.76 7.94084 23.9947 7.75305L24.4172 8.36337C24.2294 8.50421 23.9947 8.692 23.76 8.87978ZM25.1684 7.84695L24.7459 7.23663C24.9806 7.04884 25.2153 6.908 25.497 6.72021L25.9195 7.33053C25.6379 7.47137 25.4031 7.65916 25.1684 7.84695Z" fill="#FFBD00"/>
<path d="M65.0268 94.4175C64.9799 94.1358 64.9329 93.8072 64.886 93.5255L65.6371 93.4316C65.6841 93.7133 65.731 93.9949 65.778 94.2766L65.0268 94.4175ZM64.7921 92.6335C64.7921 92.3518 64.7451 92.0232 64.7451 91.7415H65.4963C65.4963 92.0232 65.4963 92.3048 65.5432 92.5865L64.7921 92.6335ZM65.4963 90.8495H64.7451C64.7451 90.5678 64.7921 90.2392 64.7921 89.9575L65.5432 90.0044C65.4963 90.2861 65.4963 90.5678 65.4963 90.8495ZM65.6371 89.1124L64.886 89.0185C64.9329 88.7369 64.9799 88.4082 65.0268 88.1266L65.731 88.2674C65.6841 88.5491 65.6371 88.8308 65.6371 89.1124ZM65.9188 87.4223L65.2146 87.2815C65.2615 86.9998 65.3554 86.7181 65.4024 86.3895L66.1066 86.5773C66.0596 86.859 65.9657 87.1407 65.9188 87.4223ZM66.3413 85.7322L65.6371 85.4975C65.731 85.2158 65.8249 84.9341 65.9188 84.6525L66.623 84.8872C66.5291 85.1689 66.4352 85.4506 66.3413 85.7322ZM66.9516 84.0891L66.2474 83.8074C66.3413 83.5257 66.4822 83.244 66.5761 82.9624L67.2333 83.244C67.1394 83.5727 67.0455 83.8074 66.9516 84.0891ZM67.6089 82.4929L66.9516 82.1643C67.0925 81.8826 67.2333 81.6478 67.3742 81.3662L68.0314 81.6948C67.8906 81.9765 67.7497 82.2582 67.6089 82.4929ZM68.454 80.9436L67.7967 80.5681C67.9375 80.3333 68.0784 80.0516 68.2662 79.8169L68.8765 80.1925C68.7356 80.4742 68.5948 80.7089 68.454 80.9436ZM69.3459 79.4883L68.7356 79.0658C68.8765 78.831 69.0643 78.5493 69.252 78.3146L69.8624 78.7371C69.6746 78.9719 69.4868 79.2066 69.3459 79.4883ZM70.3318 78.0329L69.7215 77.6104C69.9093 77.3757 70.0502 77.1409 70.2379 76.9062L70.8013 77.3757C70.6605 77.5634 70.5196 77.7982 70.3318 78.0329ZM71.4116 76.6245L70.8482 76.155C71.036 75.9203 71.2238 75.6856 71.4116 75.4508L71.975 75.9203C71.7403 76.202 71.5525 76.4367 71.4116 76.6245ZM72.5383 75.31L71.975 74.8405C72.1628 74.6058 72.3506 74.418 72.5853 74.1832L73.1487 74.6997C72.9139 74.8874 72.7261 75.0752 72.5383 75.31ZM73.712 73.9955L73.1956 73.479C73.3834 73.2443 73.6181 73.0565 73.8059 72.8218L74.3224 73.3382C74.0876 73.5729 73.8998 73.8077 73.712 73.9955ZM74.9327 72.7279L74.4162 72.2115C74.604 72.0237 74.8388 71.7889 75.0266 71.6012L75.543 72.1176C75.3082 72.3054 75.1204 72.5401 74.9327 72.7279ZM76.1533 71.5073L75.6369 70.9908L75.7777 70.85C75.9185 70.7092 76.1063 70.5214 76.2472 70.3805L76.7636 70.8969C76.6228 71.0378 76.435 71.1786 76.2941 71.3664L76.1533 71.5073ZM77.4209 70.2866L76.9044 69.7702C77.1392 69.5824 77.327 69.3477 77.5617 69.1599L78.0781 69.7233C77.8903 69.9111 77.6556 70.0988 77.4209 70.2866ZM78.7354 69.113L78.219 68.5496C78.4537 68.3618 78.6415 68.174 78.8762 67.9393L79.3457 68.5026C79.1579 68.7374 78.9701 68.9252 78.7354 69.113ZM80.0499 67.9393L79.5804 67.3759L80.2377 66.7656L80.7072 67.329L80.0499 67.9393ZM81.3644 66.7656L80.895 66.2022C81.1297 66.0144 81.3175 65.8266 81.5522 65.5919L82.0686 66.1553C81.7869 66.3431 81.5992 66.5778 81.3644 66.7656ZM82.6789 65.545L82.1625 64.9816C82.3973 64.7938 82.585 64.606 82.8198 64.3713L83.3362 64.9347C83.1015 65.1694 82.8667 65.3572 82.6789 65.545ZM83.9935 64.3713L83.477 63.8549C83.7118 63.6671 83.8996 63.4323 84.1343 63.2446L84.6507 63.761C84.416 63.9488 84.1812 64.1835 83.9935 64.3713ZM85.261 63.1507L84.7446 62.6342C84.9324 62.4465 85.1671 62.2117 85.3549 62.0239L85.8713 62.5403C85.6836 62.7281 85.4488 62.9159 85.261 63.1507Z" fill="#FFBD00"/>
<path d="M27.5158 98.3611C27.4688 98.0794 27.375 97.7978 27.328 97.5161L28.0322 97.3283C28.1261 97.61 28.1731 97.8917 28.267 98.1733L27.5158 98.3611ZM27.0933 96.671C26.9994 96.3894 26.9524 96.1077 26.8585 95.826L27.5627 95.6382C27.6566 95.9199 27.7036 96.2016 27.7975 96.4832L27.0933 96.671ZM26.6238 94.9809C26.5299 94.6993 26.436 94.4176 26.3421 94.1828L27.0463 93.9481C27.1402 94.2298 27.2341 94.5115 27.328 94.7932L26.6238 94.9809ZM26.0135 93.3378C25.9196 93.0561 25.7788 92.8214 25.6379 92.5397L26.2952 92.2111C26.436 92.4927 26.5299 92.7744 26.6707 93.0092L26.0135 93.3378ZM25.2623 91.7885C25.1215 91.5538 24.9807 91.2721 24.8398 91.0374L25.4501 90.6618C25.591 90.8965 25.7788 91.1782 25.9196 91.4599L25.2623 91.7885ZM24.3234 90.3801C24.1356 90.1454 23.9478 89.9106 23.807 89.7229L24.3703 89.2534C24.5581 89.4881 24.7459 89.7229 24.9337 89.9576L24.3234 90.3801ZM23.1967 89.0656C23.0089 88.8778 22.7741 88.69 22.5394 88.5022L23.0089 87.9389C23.2436 88.1267 23.4783 88.3144 23.7131 88.5492L23.1967 89.0656ZM21.8821 87.9858C21.6474 87.845 21.4127 87.6572 21.1779 87.5163L21.5535 86.906C21.8352 87.0469 22.0699 87.2347 22.3047 87.4224L21.8821 87.9858ZM20.4268 87.0938C20.192 86.953 19.9104 86.8591 19.6287 86.7182L19.9573 86.061C20.239 86.2018 20.5207 86.3427 20.7554 86.4366L20.4268 87.0938ZM18.8306 86.3896C18.5958 86.2957 18.3142 86.1549 18.0325 86.061L18.2672 85.3568C18.5489 85.4507 18.8306 85.5915 19.1123 85.6854L18.8306 86.3896ZM17.2344 85.7793C16.9527 85.6854 16.671 85.5915 16.3893 85.4976L16.6241 84.7934C16.9057 84.8873 17.1874 84.9812 17.4691 85.0751L17.2344 85.7793ZM15.5443 85.2159C15.2626 85.122 14.9809 85.0281 14.6992 84.9812L14.934 84.277C15.2156 84.3709 15.4973 84.4648 15.779 84.5117L15.5443 85.2159Z" fill="#FFBD00"/>
</svg>
