<svg width="126" height="151" viewBox="0 0 126 151" fill="none" xmlns="http://www.w3.org/2000/svg">
<path d="M36.2707 114.021C35.9696 114.021 35.6684 114.262 35.6684 114.624C35.6684 114.864 35.6684 115.105 35.6684 115.346V115.407C35.6684 115.467 35.6684 115.527 35.6082 115.587C35.6082 115.708 35.548 115.828 35.4877 115.949C35.4877 115.949 35.4877 116.009 35.4275 116.009C35.4275 116.009 35.4275 116.009 35.4275 116.069C35.4275 116.069 35.4275 116.129 35.3673 116.129C35.307 116.25 35.2468 116.37 35.1866 116.43C35.1264 116.491 35.1263 116.551 35.0661 116.551C35.0661 116.551 35.0661 116.551 35.0661 116.611C35.0059 116.732 34.8854 116.792 34.8252 116.912C34.5843 117.153 34.5843 117.515 34.8252 117.755C35.0661 117.996 35.4275 117.996 35.6684 117.755C36.5116 116.972 36.9332 115.768 36.8128 114.624C36.8128 114.322 36.6321 114.021 36.2707 114.021Z" fill="#112734"/>
<path d="M124.928 70.2944C124.566 68.9092 123.904 67.5841 123.061 66.4397C122.218 65.2352 121.254 64.151 120.35 63.0067C119.447 61.8623 118.724 60.5975 118.062 59.2724C116.737 56.6223 115.713 53.8518 114.568 51.1414C113.424 48.4311 112.099 45.6606 109.69 43.8537C108.485 42.9502 107.1 42.2877 105.775 41.6252C104.39 40.9627 103.004 40.3604 101.559 39.7581C98.6075 38.5535 95.596 37.5296 92.5846 36.4454C95.1142 33.4942 97.6439 30.6032 100.174 27.6519C102.703 24.7609 105.233 21.8699 107.642 18.8584C108.786 17.4129 109.87 15.9072 110.774 14.3412C111.677 12.8355 112.521 11.2093 112.942 9.46262C113.364 7.77619 113.424 5.96931 112.581 4.34311C111.798 2.8976 110.352 1.8737 108.847 1.21117C105.534 -0.234335 101.8 -0.294565 98.3064 0.548649C98.2461 0.548649 98.1859 0.608879 98.1257 0.608879C98.0052 0.608879 97.945 0.548649 97.8245 0.608879C95.3551 1.09071 93.1266 2.29531 90.8982 3.37944C88.6697 4.40334 86.3207 5.24655 83.9718 5.96931C79.3341 7.29435 74.5157 8.07734 69.6973 8.67963C69.6371 8.67963 69.5167 8.67963 69.4565 8.67963C69.3962 8.67963 69.336 8.67963 69.2758 8.67963C66.8064 8.98078 64.2767 9.28193 61.8073 9.58308C59.2777 9.88422 56.6878 10.2456 54.2184 10.8479C52.9536 11.149 51.749 11.5707 50.5444 12.1127C49.3398 12.5946 48.1954 13.1968 47.0511 13.6787C44.7021 14.6424 42.1123 15.0037 39.7633 15.9674C37.836 16.7504 36.029 18.0754 35.1858 20.063C34.9449 20.6051 34.7642 21.1471 34.8847 21.6892C35.0051 22.2313 35.4267 22.7131 35.9688 22.8336C36.4506 22.954 36.9927 22.8938 37.5348 22.7733C38.378 23.3154 39.3417 23.1949 40.2451 23.0143C40.6667 22.8938 41.0884 22.7733 41.5702 22.7131C42.052 22.6529 42.5941 22.6529 43.1361 22.7131C45.0033 22.8938 46.9306 23.1347 48.7977 22.7733C48.858 22.7733 48.9182 22.7733 48.9182 22.7733C50.2432 22.7733 51.3876 23.4359 52.4717 24.0382C53.6763 24.7609 54.8207 25.5439 56.1457 25.9053C57.4708 26.3269 58.9765 26.2667 60.2413 25.7246C61.5664 25.1825 62.6505 24.2189 63.3732 22.954C64.0358 21.8699 64.4574 20.4846 65.5415 19.7016C69.0951 20.1835 72.6486 20.2437 76.2022 19.8823C76.4431 19.8823 76.6238 19.8221 76.8647 19.8221C76.0817 20.3039 75.2385 20.7255 74.4555 21.2074C72.227 22.4722 69.9383 23.6768 67.8905 25.2428C65.7222 26.869 63.8551 28.8565 62.4096 31.1452V31.2055C62.3494 31.2055 62.2891 31.2055 62.2289 31.2657C60.6027 31.7475 59.0367 32.3498 57.4708 33.1328C54.2786 33.2533 51.1467 33.6749 48.075 34.3374C43.5578 35.2409 39.161 36.6261 34.8245 38.2523C30.4879 39.8183 26.2719 41.565 22.0558 43.4321C17.9602 45.239 13.9248 47.1061 10.0099 49.3346C8.08256 50.4187 6.15521 51.6233 4.2881 52.8881C2.60167 54.0325 0.49365 55.3575 0.312962 57.586C0.312962 57.7667 0.312962 57.9474 0.312962 58.1281C0.132273 58.2485 -0.0484154 58.4895 0.0118142 58.7304C0.614109 61.1998 1.75844 63.5487 2.84257 65.8977C3.98693 68.3069 5.13132 70.6558 6.33591 73.065C8.68487 77.7629 11.094 82.4608 13.6237 87.0985C16.1533 91.7361 18.683 96.3136 21.3933 100.891C23.9832 105.348 26.6333 109.745 28.5004 114.503C30.247 119.08 31.5118 123.838 33.6801 128.235C33.9812 128.777 34.2222 129.319 34.5233 129.861C34.5836 129.982 34.704 130.042 34.7642 130.102C34.704 130.644 35.0052 131.126 35.5472 131.367C35.8484 131.488 36.2097 131.548 36.5711 131.608C36.4506 131.668 36.27 131.729 36.1495 131.789C35.9086 131.909 35.7881 132.331 35.9688 132.572C37.1132 134.077 38.2575 135.643 39.4019 137.149C39.944 137.812 40.486 138.474 41.1486 139.016C41.8111 139.558 42.5338 139.92 43.3168 140.161C44.8828 140.703 46.5692 140.883 48.1954 141.064C50.0626 141.305 51.8694 141.666 53.6763 142.028C60.9039 143.473 68.0109 145.642 75.1783 147.509C78.792 148.472 82.4058 149.376 86.0798 150.038C86.9832 150.219 87.8867 150.339 88.8504 150.219C89.6936 150.099 90.4163 149.677 91.0186 149.135C92.2834 148.051 93.1869 146.545 93.8494 145.1C94.5722 143.534 95.1745 141.847 95.7768 140.161C96.4393 138.414 97.0416 136.728 97.7041 134.981C98.9087 131.608 100.113 128.175 101.197 124.742C101.378 124.983 101.619 125.043 101.92 124.862C102.703 124.381 103.787 124.501 104.63 124.2C105.715 123.778 106.257 122.815 106.257 121.67C106.257 121.068 106.136 120.466 106.016 119.863C105.895 119.201 105.715 118.538 105.594 117.876C105.353 116.611 105.112 115.346 105.052 114.021C104.992 113.118 105.052 112.154 105.293 111.251C105.353 111.19 105.413 111.13 105.413 111.01C105.474 110.708 105.534 110.468 105.654 110.166C105.654 110.106 105.715 110.046 105.715 109.925C105.775 109.865 105.775 109.745 105.775 109.685C106.799 106.492 108.907 103.782 110.413 100.771C111.316 99.0239 111.979 97.1568 112.521 95.2897C115.171 90.7725 119.206 87.1587 122.157 82.8222C123.844 80.2925 125.109 77.522 125.41 74.5105C125.41 73.2457 125.349 71.74 124.928 70.2944ZM106.919 43.5525C108.184 44.215 109.449 44.998 110.413 46.0822C111.376 47.1663 112.039 48.4311 112.641 49.6959C113.906 52.2858 114.869 55.0564 116.074 57.7065V57.7667C112.942 56.6826 109.569 56.1405 106.257 56.0803C102.583 56.02 98.8485 56.6223 95.3552 57.8269C94.3313 58.1883 93.3676 58.6099 92.4039 59.0315C91.8016 59.3327 91.0788 59.5736 90.597 60.1156C90.4163 59.7543 90.2356 59.3327 89.9947 59.0315C89.0913 57.7065 87.8265 56.803 86.3207 56.261C86.0196 56.1405 85.6582 56.02 85.2968 55.9598C85.598 55.8394 85.8991 55.6587 86.2003 55.5382C86.5014 55.4177 86.5616 54.9961 86.3809 54.7552C86.2002 54.4541 85.8991 54.3938 85.598 54.5745C85.2366 54.7552 84.9354 54.8757 84.5741 55.0564C84.6343 54.8757 84.5138 54.5745 84.3934 54.4541C84.2127 54.3336 83.9718 54.2734 83.7309 54.3938C83.4899 54.5143 83.3092 54.695 83.0683 54.8154C83.249 54.5745 83.4297 54.2734 83.6104 53.9722C83.8513 53.5506 83.5502 53.1893 83.1888 53.129C83.0081 52.0449 83.0081 50.9608 82.9479 49.8766C82.8876 48.6118 82.8274 47.347 82.8274 46.0822C82.8274 43.5525 82.9479 40.9627 83.5501 38.4933C83.8513 37.2284 84.3332 35.9636 84.9355 34.759C89.3322 36.8068 94.0301 38.3126 98.5473 39.999C101.499 41.0229 104.269 42.1672 106.919 43.5525ZM45.4851 127.272C45.3646 126.91 45.2442 126.549 45.1237 126.187C46.6897 126.549 48.075 127.332 49.4602 128.115C51.2069 129.078 53.0138 130.102 55.0014 130.584C59.5186 131.668 64.1563 130.404 68.553 129.38C71.2031 128.777 73.793 128.175 76.4431 127.573C77.226 127.874 78.0693 128.115 78.8522 128.356C80.9603 128.958 83.1888 129.199 85.357 129.139C85.7786 129.139 86.2003 129.078 86.6219 129.078C86.4412 129.5 86.2605 129.861 86.0798 130.283C85.5377 131.488 84.8752 132.632 83.7309 133.355C82.707 134.017 81.5626 134.318 80.358 134.559C79.0932 134.74 77.7681 134.8 76.5033 134.8C75.0578 134.8 73.552 134.8 72.1065 134.74C69.2155 134.62 66.2643 134.258 63.4335 133.716C57.7117 132.632 52.1706 130.765 46.9306 128.175C46.509 127.934 46.0874 127.753 45.6658 127.512C45.4851 127.392 45.4851 127.332 45.4851 127.272ZM87.706 126.308C87.706 126.248 87.6458 126.187 87.6458 126.127C87.9469 125.404 87.8264 124.561 87.5855 123.778C87.8264 121.61 87.3446 119.382 86.2003 117.514C86.3207 117.575 86.4412 117.695 86.5616 117.755C87.0435 118.117 87.6458 117.454 87.3446 116.972C86.5014 115.467 85.2366 114.142 83.7911 113.238C83.1888 112.816 82.5865 113.84 83.1888 114.262C83.7911 114.623 84.3332 115.105 84.815 115.587C84.6945 115.527 84.5138 115.527 84.3934 115.467C83.8513 115.346 83.3695 116.009 83.8513 116.43C85.1161 117.635 86.0196 119.261 86.3809 121.008C86.5616 121.851 86.5616 122.754 86.5014 123.658C86.5014 123.899 86.5014 124.079 86.5616 124.32C86.6218 124.501 86.6821 124.742 86.6821 124.923C86.7423 125.224 86.7423 125.645 86.5014 125.947C86.3207 126.187 86.2605 126.489 86.5014 126.729C86.5014 126.79 86.4412 126.85 86.4412 126.91C86.3207 127.151 86.2003 127.392 86.0196 127.633C85.9594 127.693 85.8991 127.753 85.8389 127.814C85.7787 127.874 85.7787 127.874 85.7184 127.934C82.0444 128.115 78.25 127.392 74.9976 125.645C74.1544 125.224 73.3714 124.682 72.7088 124.019C72.0463 123.357 71.5645 122.513 71.1429 121.61C70.3599 119.743 69.9985 117.635 69.9383 115.587C69.8781 113.479 70.119 111.371 70.5406 109.323C70.9622 107.336 71.5043 105.348 72.5884 103.601C73.5521 102.035 74.9373 100.891 76.5033 99.9274C77.2863 99.4455 78.1295 99.0239 78.9727 98.6023C79.8159 98.1807 80.6591 97.7591 81.5024 97.4579C81.924 97.2773 82.4058 97.1568 82.8876 97.1568C83.3695 97.1568 83.7308 97.2773 84.1524 97.5182C84.574 97.7591 85.0559 98 85.5378 97.9398C86.0196 97.9398 86.4412 97.7591 86.8628 97.5182C87.5253 97.1568 88.1878 96.675 88.9708 96.7954C89.6936 96.9159 90.3561 97.458 90.8379 98C90.8379 98.3012 90.8982 98.5421 90.9584 98.8432C90.5368 98.6625 90.0549 99.2046 90.2959 99.6864C91.1993 101.674 91.5607 103.903 91.2596 106.071C91.2596 106.251 91.38 106.492 91.5607 106.553C91.6209 107.757 91.6811 109.022 91.6811 110.227C90.8981 109.925 90.1754 109.685 89.3924 109.383C88.6094 109.142 87.7662 108.902 86.9832 109.022C86.14 109.142 85.4173 109.504 84.9355 110.166C84.5138 110.829 84.3331 111.672 84.5741 112.395C84.815 113.298 85.5378 113.961 86.4412 114.262C87.1639 114.503 87.4651 113.359 86.7423 113.118C86.14 112.937 85.6582 112.335 85.6582 111.672C85.6582 111.01 86.0798 110.407 86.7423 110.166C87.5253 109.925 88.3083 110.166 89.0311 110.407C89.9345 110.708 90.8379 111.07 91.7414 111.371C91.7414 111.973 91.6811 112.576 91.6209 113.178C91.2595 116.129 90.4766 119.02 89.4527 121.851C88.9106 123.417 88.3083 124.862 87.706 126.308ZM74.6362 99.5058C72.8293 99.1444 71.5645 97.5182 71.444 95.7113C71.3236 93.6033 72.4679 91.6759 74.0941 90.4111C74.8771 89.7486 75.8408 89.2667 76.8045 88.8451C77.8886 88.4235 79.0329 88.1224 80.1773 88.2428C81.9842 88.4235 83.5502 89.6883 84.3934 91.2543C84.8752 92.0975 85.1161 93.0612 85.1161 94.0851C85.1161 94.9283 84.815 95.8317 84.1524 96.3738C83.7911 96.2534 83.4297 96.1329 83.0683 96.1329C81.9842 96.0727 80.9 96.5545 79.9364 97.0363C79.0329 97.4579 78.1897 97.8796 77.2863 98.3012C76.4431 98.7228 75.6601 99.2046 74.8771 99.7467C74.8771 99.566 74.7566 99.5058 74.6362 99.5058ZM91.5005 78.3652C91.5607 81.2562 91.5005 84.2075 91.2596 87.0985C91.0789 88.9054 90.8379 90.7725 91.0186 92.5794C91.1391 93.4828 91.38 94.3862 91.5607 95.2897C91.6812 95.9522 91.8016 96.6147 91.7414 97.2773C91.7414 97.2773 91.6811 97.2773 91.6811 97.217C90.7175 96.2534 89.5731 95.4704 88.1878 95.7113C87.706 95.7715 87.2844 96.0124 86.923 96.2534C86.5616 96.434 86.2002 96.7352 85.7786 96.7954C85.598 96.8557 85.4775 96.7954 85.357 96.7954C86.5616 95.4101 86.5616 93.3021 85.9593 91.6157C85.1763 89.5679 83.4899 87.8212 81.3819 87.2792C78.9125 86.6166 76.2022 87.6405 74.1544 89.0258C72.1065 90.4111 70.5406 92.4589 70.3599 94.9885C70.1792 97.3375 71.5645 99.8069 73.9134 100.53C73.4918 100.891 73.1305 101.252 72.7691 101.614C71.3236 103.24 70.5406 105.228 69.9383 107.275C69.336 109.444 68.9746 111.672 68.8542 113.961C68.7939 116.189 68.9746 118.478 69.6371 120.646C70.2394 122.694 71.2633 124.501 73.01 125.826C73.552 126.187 74.0941 126.549 74.6964 126.85C72.8293 127.272 71.0224 127.693 69.1553 128.115C66.9268 128.597 64.6983 129.199 62.4096 129.56C60.2413 129.922 58.0128 130.042 55.8446 129.621C53.857 129.259 52.1103 128.295 50.4239 127.332C48.617 126.308 46.7499 125.344 44.7021 124.983C44.5214 124.019 44.4612 123.056 44.6419 122.092C44.8828 120.405 45.726 118.96 46.1476 117.334C46.509 115.768 46.3885 114.142 45.6658 112.696C45.0033 111.311 43.9191 110.227 42.5941 109.444C41.2088 108.661 39.7031 108.239 38.1371 107.878C37.7155 106.191 37.5348 104.445 37.2939 102.758C37.053 100.951 36.8723 99.1444 36.5109 97.3977C36.1495 95.4704 35.6677 93.543 35.1858 91.6157C34.704 89.6883 34.2222 87.761 33.7403 85.7734C33.2585 83.9665 32.7766 82.0994 32.0539 80.3528C30.7891 77.2811 28.8618 74.5707 26.6935 72.1013C24.465 69.6319 21.9956 67.4034 19.5262 65.2352C23.0797 65.8977 26.6935 65.717 30.247 65.0545C35.6677 64.0306 40.7872 61.8623 45.9067 59.694C48.6772 58.5497 51.3876 57.4053 54.2184 56.4416C55.1218 56.9837 55.965 57.586 56.8083 58.1883C57.7719 58.8508 58.7356 59.5134 59.8197 59.9952C60.9641 60.5373 62.2289 60.8986 63.4937 61.0793C66.0836 61.5009 68.6734 61.3202 71.2031 60.7782C73.6123 60.2963 75.9612 59.6338 78.25 58.6701C79.3341 58.1883 80.4182 57.586 81.3819 56.8633C81.5626 57.0439 81.8035 57.1042 82.0444 56.9837C82.1649 56.9235 82.3456 56.803 82.466 56.7428C84.815 56.9235 87.4651 57.4053 88.9708 59.3929C89.7538 60.3566 90.1754 61.6214 90.4163 62.826C90.7175 64.2113 90.8379 65.5965 90.9584 66.9818C91.2596 70.5354 91.5607 74.0889 91.6811 77.6424C91.6209 77.7027 91.6209 77.7629 91.5607 77.8231C91.1993 77.9436 91.3198 78.1845 91.5005 78.3652ZM65.6017 18.738C65.4211 18.6175 65.2404 18.5573 64.9995 18.6777C64.0358 18.5573 63.1323 18.3766 62.1687 18.1959C61.8675 18.1357 61.5664 18.2561 61.4459 18.6175C61.3857 18.9187 61.5664 19.28 61.8675 19.3403C62.53 19.4607 63.1926 19.5812 63.7949 19.7016C63.2528 20.3039 62.8914 21.0869 62.5301 21.8097C62.2289 22.3517 61.9277 22.954 61.5664 23.4359C61.1448 23.9177 60.6027 24.3393 60.0004 24.6405C58.856 25.2428 57.531 25.3632 56.3264 25.0621C55.0616 24.7007 53.9774 23.9779 52.8331 23.2552C52.1103 22.8336 51.3876 22.412 50.6648 22.171C50.966 21.9904 51.2671 21.7494 51.5081 21.3881C51.6887 21.1471 51.5683 20.7255 51.3273 20.6051C51.0262 20.4244 50.7251 20.5449 50.5444 20.7858C50.3637 21.0869 50.0023 21.2074 49.7012 21.3278C49.2796 21.5085 48.8579 21.629 48.4363 21.6892C47.5931 21.8699 46.7499 21.9301 45.8465 21.8699C44.943 21.8699 44.0396 21.7494 43.1964 21.629C42.2327 21.5085 41.3293 21.5688 40.3656 21.7494C39.944 21.8699 39.5224 21.9904 39.1008 21.9904C39.5826 21.6892 40.0042 21.3881 40.4258 21.0267C40.9679 20.5449 40.1246 19.7016 39.5826 20.1835C38.7996 20.9062 37.836 21.4483 36.7518 21.6892C36.5109 21.7494 36.0291 21.8097 35.8484 21.5688C35.6677 21.2074 35.9688 20.6653 36.1495 20.3642C36.9927 18.6175 38.7996 17.4731 40.6065 16.8106C42.8952 15.9674 45.3646 15.5458 47.5931 14.5821C48.7375 14.1003 49.8819 13.5582 51.0864 13.0162C52.2308 12.5343 53.3752 12.1729 54.5195 11.8718C56.8685 11.2695 59.3379 10.9684 61.7471 10.6672C63.9153 10.4263 66.0836 10.1854 68.2519 9.88422C67.6496 10.9081 67.3484 12.1127 67.228 13.3775C67.0473 15.1844 67.3484 17.0515 67.4086 18.8584C66.9268 18.7982 66.5052 18.7982 66.0234 18.738C65.9029 18.7982 65.7222 18.738 65.6017 18.738ZM67.8302 26.6883C69.8178 25.1223 72.0463 23.9177 74.2146 22.6529C76.0817 21.5688 78.009 20.4846 79.8762 19.4607C79.9364 19.4607 79.9364 19.4607 79.9966 19.4607C80.1171 19.4607 80.2375 19.3403 80.2978 19.2198C82.1047 18.1959 83.9115 17.172 85.7184 16.1481C88.6094 14.823 91.6812 13.9798 94.8733 13.6185C95.1745 13.5582 95.4756 13.3775 95.4756 13.0162C95.4756 12.715 95.2347 12.4139 94.8733 12.4139C93.6085 12.5343 92.3437 12.7752 91.1391 13.0764C92.8857 12.1127 94.6324 11.0888 96.3188 10.1251C96.9813 9.76377 96.379 8.73986 95.7165 9.10124C92.2232 11.0888 88.6697 13.0764 85.1763 15.064C85.0559 15.1242 84.9957 15.1844 84.8752 15.1844C84.815 15.1844 84.7547 15.2447 84.7547 15.3049C83.6706 15.9072 82.5865 16.5697 81.4421 17.172C80.7796 17.5334 80.1171 17.8948 79.5148 18.2561C75.901 18.9187 72.2872 19.1596 68.6132 18.9187C68.553 17.172 68.2519 15.3651 68.3723 13.6185C68.4928 12.2332 68.9144 10.7274 69.8178 9.70354C74.2748 9.16147 78.6716 8.49895 83.0081 7.29436C85.2968 6.69206 87.5855 5.90908 89.814 5.00563C91.9823 4.10219 94.0301 2.8976 96.2586 2.11462C96.4393 2.05439 96.6802 1.99416 96.8609 1.93393C96.9814 1.99416 97.1018 1.99416 97.2223 1.93393C100.414 0.970255 103.968 0.729337 107.16 1.75324C108.606 2.23508 110.111 2.95783 111.075 4.16242C112.039 5.42724 112.159 7.05344 111.858 8.55917C111.497 10.1854 110.774 11.7513 109.931 13.1968C109.087 14.7026 108.064 16.1481 106.979 17.5334C104.751 20.4244 102.282 23.1347 99.9326 25.9053C97.4029 28.8565 94.8131 31.868 92.2834 34.8192C91.9823 35.1806 91.6811 35.542 91.38 35.9034C89.031 34.9999 86.6821 34.0965 84.4536 32.9521C83.7911 32.651 83.1285 32.2896 82.466 31.9282C82.2251 31.8078 81.9842 31.868 81.8035 31.9885C78.792 30.8441 75.6601 30.1816 72.4679 30.0009C69.5769 29.8202 66.6256 30.1213 63.7949 30.7236C64.9392 29.3384 66.2643 27.8929 67.8302 26.6883ZM35.1256 129.078C32.8369 124.923 31.5118 120.285 29.8856 115.768C29.0424 113.419 28.0787 111.13 26.9344 108.902C25.79 106.613 24.465 104.384 23.2002 102.216C20.5501 97.6989 17.9602 93.1214 15.4306 88.4838C12.9009 83.8461 10.4315 79.2084 8.08255 74.4503C6.87796 72.1013 5.7336 69.7524 4.58924 67.4034C3.50511 65.1147 2.30051 62.826 1.4573 60.4168C1.33684 60.1156 1.21638 59.7543 1.15615 59.4531C1.4573 59.2724 1.51752 58.9713 1.33683 58.6701C0.975457 57.8269 1.33685 56.8633 1.87891 56.2007C2.54144 55.4177 3.38465 54.8757 4.16763 54.3336C5.97452 53.0688 7.78141 51.9244 9.70875 50.8403C13.5032 48.672 17.4181 46.7447 21.3933 44.998C25.4287 43.1912 29.5243 41.5047 33.6801 39.9388C37.8962 38.3728 42.1725 36.9273 46.5692 35.9636C49.7012 35.2409 52.9535 34.759 56.1457 34.5783C56.2662 34.8192 56.6276 34.9397 56.9287 34.8192C57.1094 34.6988 57.2901 34.6386 57.4708 34.5181C58.2537 34.5181 58.9765 34.4579 59.7595 34.5181C60.3015 34.5181 60.9039 34.5181 61.4459 34.5783C62.1687 34.6386 62.1687 33.434 61.4459 33.434C61.0243 33.434 60.5425 33.3737 60.1209 33.3737C62.2289 32.5908 64.3972 31.9885 66.6257 31.6873C69.9985 31.2055 73.4316 31.3259 76.7442 31.9885C78.6113 32.3498 80.4785 32.9521 82.2251 33.6749C82.4058 33.7351 82.5865 33.7953 82.7672 33.6749C83.1888 33.8556 83.5502 34.0965 83.9718 34.2772C81.6228 38.9751 81.6228 44.3957 81.8637 49.5153C81.924 51.021 81.9842 52.587 82.2853 54.0927C81.2614 55.5984 79.6353 56.6826 78.0091 57.4655C75.9613 58.4292 73.6725 59.0917 71.444 59.5736C69.0348 60.1157 66.5052 60.3566 64.096 60.0554C62.8914 59.935 61.7471 59.6338 60.6629 59.2122C59.5788 58.7906 58.6151 58.1883 57.6514 57.5258C56.8082 56.9235 55.965 56.3212 55.0616 55.7791C55.0616 55.4177 54.7604 55.0564 54.3388 55.2371C54.2786 55.2371 54.2184 55.2973 54.2184 55.2973C53.1945 54.695 52.1104 54.2734 50.9058 54.0927C50.6046 54.0325 50.3035 54.1529 50.183 54.5143C50.1228 54.8154 50.3035 55.1768 50.6046 55.2371C51.3274 55.3575 52.0501 55.5382 52.7127 55.8394C48.0147 57.5258 43.4975 59.6338 38.8599 61.3805C33.921 63.2476 28.7413 64.6931 23.4411 64.5726C20.5501 64.5124 17.7193 63.9703 15.0692 62.826C14.768 62.7055 14.4669 62.7657 14.2862 63.0067C14.1657 63.2476 14.226 63.6692 14.4669 63.7896C15.551 64.3317 16.6351 64.8738 17.7193 65.4158H17.7795C20.2489 67.5239 22.7183 69.6921 24.9468 72.0411C27.1753 74.39 29.1629 77.0401 30.5482 79.9914C31.3311 81.6176 31.813 83.3642 32.2948 85.1109C32.7767 87.0382 33.2585 88.9054 33.7403 90.8327C34.2222 92.76 34.704 94.6874 35.1256 96.6147C35.487 98.4216 35.7881 100.168 36.0291 101.975C36.3302 104.143 36.5711 106.312 37.1132 108.48C37.1132 108.6 37.1132 108.661 37.1734 108.721C37.4746 109.865 37.8359 111.01 38.3178 112.094C38.4985 112.455 38.6792 112.877 38.9201 113.238C39.2815 113.901 40.3054 113.298 39.944 112.636C39.3417 111.552 38.8598 110.347 38.4985 109.142C40.9679 109.745 43.4373 110.708 44.6419 113.118C45.2442 114.382 45.3646 115.888 45.0032 117.213C44.5816 118.779 43.7987 120.225 43.5578 121.911C43.3168 123.778 43.5577 125.645 44.3407 127.392C44.2203 127.512 44.2203 127.633 44.2203 127.753C44.2203 128.055 44.0998 128.175 43.7987 128.295C43.4373 128.476 43.0157 128.476 42.5941 128.476C41.3895 128.416 40.2451 128.175 39.0405 128.115C37.8962 128.115 36.6313 128.235 35.6677 128.898C35.3665 128.838 35.2461 128.958 35.1256 129.078ZM104.149 123.176C103.727 123.357 103.185 123.417 102.703 123.477C102.221 123.537 101.739 123.658 101.318 123.899C102.221 120.887 103.065 117.876 103.787 114.864C103.848 115.587 103.908 116.31 104.088 117.033C104.329 118.297 104.63 119.622 104.871 120.887C104.992 121.67 105.112 122.815 104.149 123.176ZM109.449 99.9274C108.606 101.674 107.582 103.3 106.618 104.987C106.136 105.83 105.654 106.673 105.293 107.577C105.534 106.071 105.775 104.505 105.895 102.999C106.016 102.096 106.076 101.132 106.136 100.229C106.196 99.5058 105.052 99.5058 104.992 100.229C104.45 107.456 102.944 114.563 100.896 121.49C98.8485 128.416 96.3188 135.162 93.8494 141.968C93.2471 143.534 92.6448 145.039 91.8016 146.485C91.0186 147.75 89.8743 149.195 88.3083 149.316C87.4048 149.376 86.5616 149.195 85.6582 149.014C84.7547 148.834 83.8513 148.653 83.0081 148.472C81.2614 148.111 79.4546 147.629 77.7079 147.208C70.7213 145.401 63.7949 143.293 56.748 141.727C55.0013 141.305 53.1945 140.944 51.4478 140.643C49.7012 140.341 48.0147 140.1 46.2681 139.86C44.7623 139.619 43.1362 139.317 41.8713 138.354C41.2088 137.872 40.6667 137.209 40.1849 136.547C39.6428 135.824 39.1008 135.101 38.5587 134.379C38.1371 133.837 37.7155 133.234 37.2939 132.692C38.1371 132.331 38.9803 132.21 39.8837 132.21C40.1849 132.21 40.486 131.969 40.486 131.608C40.486 131.247 40.2451 131.066 39.8837 131.006C38.6791 130.885 37.4143 130.705 36.2097 130.464C36.1495 130.464 35.9086 130.404 35.9086 130.343C35.9086 130.223 36.0893 130.042 36.1495 129.922C36.5109 129.621 36.9927 129.44 37.4143 129.38C38.4382 129.139 39.5826 129.199 40.6065 129.319C41.5702 129.44 42.5941 129.681 43.5578 129.5C44.16 129.38 44.8226 129.078 45.1237 128.536C50.183 131.186 55.6037 133.174 61.205 134.439C64.096 135.101 67.0473 135.523 70.0587 135.764C72.9498 136.005 75.9612 136.065 78.8522 135.884C81.3819 135.704 84.0922 135.101 85.7786 133.054C86.6821 131.909 87.2242 130.524 87.8265 129.199C88.4288 127.753 89.0913 126.368 89.6333 124.923C90.7777 122.092 91.8016 119.141 92.4039 116.189C92.705 114.684 92.8857 113.178 93.0062 111.612C93.0664 109.986 93.0062 108.359 92.946 106.794C92.8857 105.167 92.8857 103.541 93.0062 101.975C93.0062 101.734 93.0664 101.493 93.0664 101.252C93.1267 101.192 93.2471 101.192 93.3073 101.072C93.488 100.831 93.488 100.53 93.2471 100.289L93.1869 100.229C93.3073 99.2648 93.488 98.3012 93.6687 97.3977C94.2108 94.326 94.8733 91.2543 94.9938 88.1224C95.054 87.3394 95.054 86.6166 94.9938 85.8336C94.9938 85.1109 93.7892 85.1109 93.8494 85.8336C93.9699 89.086 93.4278 92.218 92.8255 95.3499C92.705 94.6272 92.4641 93.9044 92.3437 93.2419C92.0425 91.6157 92.2232 89.9293 92.3437 88.2428C92.7051 84.7495 92.7653 81.2562 92.705 77.7629C93.6687 76.0765 94.8733 74.5105 96.3188 73.1854C97.1018 72.4627 97.945 71.8002 98.8485 71.3183C99.8724 70.7763 100.957 70.5956 102.101 70.716C105.775 71.1376 108.847 73.7275 110.714 76.7992C111.798 78.5459 112.46 80.4732 112.822 82.4608C112.761 86.436 112.46 90.4713 111.497 94.3862C111.436 94.6272 111.376 94.8078 111.316 95.0488C111.316 95.0488 111.316 95.109 111.256 95.109C110.894 95.7113 110.593 96.3738 110.292 97.0363C110.172 97.2773 110.232 97.5784 110.413 97.7591C110.111 98.4818 109.81 99.2046 109.449 99.9274ZM121.977 80.7744C119.567 84.9904 115.954 88.3633 113.063 92.2782C113.243 91.2543 113.424 90.2304 113.544 89.2065C113.785 86.978 113.906 84.7495 113.966 82.521C113.966 82.4608 113.966 82.4006 113.966 82.3403V82.2801C113.966 82.1597 113.966 82.0994 113.906 82.0392C113.183 78.2447 111.195 74.631 108.244 72.2218C106.678 71.0172 104.932 70.0535 102.944 69.6921C101.679 69.4512 100.414 69.4512 99.2098 69.8728C98.1257 70.2944 97.162 70.957 96.2586 71.6797C94.8733 72.8241 93.6085 74.1491 92.5846 75.6549C92.4641 72.8843 92.2232 70.1137 91.9823 67.3432C91.8016 65.4158 91.7414 63.368 91.1391 61.4407C91.3198 61.3805 91.4402 61.1998 91.4402 60.9589C91.4402 60.7782 91.9221 60.5975 92.1027 60.477C92.4641 60.2963 92.8857 60.0554 93.3073 59.8747C94.0903 59.5134 94.8733 59.2122 95.7165 58.9111C97.3427 58.3088 99.0292 57.8872 100.776 57.586C104.209 56.9837 107.702 56.9837 111.135 57.586C113.063 57.9474 114.99 58.4292 116.857 59.152C117.218 59.935 117.64 60.7179 118.122 61.5009C118.905 62.7657 119.748 63.9101 120.652 64.9942C121.555 66.0784 122.398 67.1625 123.061 68.3671C123.723 69.6319 124.085 70.957 124.205 72.4025C124.326 75.4139 123.422 78.2447 121.977 80.7744Z" fill="#112734"/>
<path d="M60.784 12.8959C60.6033 13.4982 60.0612 13.98 59.4589 14.221C58.6759 14.5823 57.7123 14.5221 56.8691 14.4017C56.5679 14.3414 56.2668 14.4619 56.1463 14.8233C56.0861 15.1244 56.2668 15.4858 56.5679 15.546C57.7123 15.7267 58.8567 15.7869 59.9408 15.3051C60.8442 14.9437 61.567 14.1607 61.8681 13.2573C62.109 12.5345 60.9647 12.1732 60.784 12.8959Z" fill="#112734"/>
</svg>
