<svg width="109" height="158" viewBox="0 0 109 158" fill="none" xmlns="http://www.w3.org/2000/svg">
<path d="M15.1287 67.7449C15.3527 67.0729 14.2886 66.7929 14.0646 67.4649C13.6166 68.921 13.9526 70.5451 14.6806 71.8332C15.4647 73.1772 16.5848 74.2413 17.7048 75.3054C18.2089 75.7534 18.9929 75.0254 18.4889 74.5213C16.6968 72.8412 14.2886 70.4891 15.1287 67.7449Z" fill="#231F20"/>
<path d="M105.911 20.086C104.231 18.7419 102.103 18.3499 100.03 17.9579C97.6782 17.5659 95.3261 17.2859 92.9739 17.1178C88.1576 16.7818 83.3413 17.0058 78.525 17.6219C69.4525 18.6859 60.6039 21.0381 51.8114 23.5582C46.7711 21.7101 42.0668 18.966 37.4185 16.1658C36.5225 15.6057 35.5704 15.0457 34.6743 14.4857C37.3065 14.4857 39.9947 14.4297 42.6268 14.4297C44.1389 14.4297 45.707 14.3177 47.2191 14.4297C47.8352 14.4857 48.5072 14.5417 49.1232 14.8217C49.6833 15.1017 50.1313 15.4937 50.5233 16.0538C51.2514 17.1178 51.8674 18.1259 53.1555 18.6299C54.2755 19.078 55.5076 18.966 56.6277 18.5739C57.8038 18.1819 58.9238 17.5659 59.8759 16.7818C60.884 15.9418 61.78 15.0457 62.8441 14.2617C63.7961 13.5336 64.9162 12.9176 66.1483 12.8056C67.3804 12.6936 68.6124 13.0296 69.7325 13.4216C71.8606 14.1497 74.4928 15.4377 76.7889 14.4857C77.741 14.0937 78.8611 12.6376 77.685 11.7975C77.125 11.4055 76.4529 11.6295 75.8369 11.3495C75.2768 11.0695 74.7728 10.6214 74.2688 10.2294C72.1406 8.49331 69.6765 7.26123 67.1003 6.36518C61.5 4.40506 55.4516 4.23704 49.5713 4.18104C46.3231 4.18104 43.0749 4.18104 39.8267 3.95703C36.6905 3.73302 33.6103 3.28499 30.5301 2.78096C24.3137 1.77289 18.1533 0.42881 11.8809 0.092789C10.3688 -0.0192179 8.85674 -0.019217 7.34465 0.0367864C6.16857 0.0927899 4.8805 0.204797 3.76043 0.596821C2.64036 0.988845 1.57629 1.66089 0.904248 2.72495C0.176203 3.90103 -0.0478146 5.30111 0.00818887 6.7012C0.176199 9.27736 1.46428 11.5735 3.08838 13.5336C4.88049 15.7178 7.06463 17.5659 9.13675 19.47C13.9531 23.8943 18.8254 28.3745 23.6417 32.7988C24.7617 33.8629 25.8818 34.8709 27.0579 35.935C25.8818 37.1111 24.7057 38.3432 23.5296 39.5752C19.9454 43.4955 16.6412 47.8077 14.7931 52.8481C14.3451 54.0801 14.0091 55.3122 13.729 56.6003C13.449 58.1124 13.337 59.6805 13.169 61.1926C13.113 61.9766 13.001 62.7607 12.833 63.5447C12.665 63.7127 12.553 63.8807 12.385 64.0487C12.1609 64.3288 11.9929 64.6088 11.9369 65.0008C11.9369 65.2808 12.0489 65.6168 12.273 65.7849C11.8809 67.1289 11.4329 68.529 11.2089 69.9291C11.0409 71.2172 11.0409 72.5613 11.4889 73.8494C11.8809 74.9134 12.441 75.9215 13.169 76.8175C14.0651 77.9376 15.1291 78.9457 16.1932 79.8977V79.9537C16.2492 80.0657 16.3612 80.1217 16.4172 80.1777C16.8092 80.5698 17.2573 80.9618 17.6493 81.3538C20.8975 84.882 24.0897 88.5223 27.1139 92.2185C27.7859 96.0827 27.3939 100.003 26.7218 103.811C25.9938 108.067 24.9857 112.268 24.5377 116.58C24.0897 121.116 24.4817 125.597 25.3218 130.021C26.1618 134.613 27.2819 139.093 28.2899 143.63C28.514 144.75 28.794 145.87 29.018 146.99C29.242 147.998 29.466 149.006 29.914 149.958C30.6421 151.694 31.9302 153.318 33.8343 153.766C34.2823 153.878 34.7303 153.934 35.1784 153.878C35.6264 155.11 36.4104 156.118 37.6425 156.622C39.1546 157.239 41.0027 157.295 42.5708 157.407C44.4749 157.575 46.3791 157.687 48.2832 157.687C52.0914 157.743 55.9557 157.575 59.7079 157.071C60.0439 157.014 60.3239 156.734 60.2119 156.398C59.3159 153.486 56.1237 152.534 53.3235 152.59C53.3795 152.422 53.3235 152.198 53.1555 152.086C51.9234 151.022 50.4673 150.182 48.8992 149.622C47.2191 149.062 45.539 148.894 43.8029 148.838C42.8508 148.838 41.8988 148.782 41.0027 148.782C40.6107 147.494 40.4987 146.094 40.4987 144.75C40.5547 142.398 40.8347 140.101 41.0027 137.749C41.3388 132.989 41.6748 128.229 41.8988 123.412C42.1228 118.82 42.1228 114.116 42.5708 109.524C42.6828 108.235 42.8508 107.003 43.1309 105.771C43.2989 105.939 43.4669 106.107 43.6349 106.331C44.1389 106.891 44.531 107.395 44.923 107.955C44.979 108.011 45.035 108.067 45.091 108.123C44.979 109.3 45.035 110.476 45.203 111.596C45.259 111.82 45.483 112.044 45.707 111.988C47.5551 111.764 49.4032 111.708 51.1954 111.82C52.0354 111.876 52.9875 112.1 53.8275 111.932C54.0515 111.876 54.2195 111.82 54.3876 111.708C54.5556 111.652 54.6676 111.596 54.7236 111.652C54.7796 111.652 54.8916 111.764 54.9476 111.764C55.0596 111.876 55.1716 111.988 55.2836 112.1C55.7316 112.548 56.2917 112.94 56.9637 112.772C57.5238 112.604 57.9158 112.1 58.1398 111.596C58.4198 111.036 58.5878 110.476 58.8118 109.916C59.0918 109.3 59.5399 108.852 60.0439 108.459C61.164 107.619 62.5081 107.003 63.6841 106.219C64.9162 105.435 66.0923 104.483 67.1563 103.475C69.2285 101.403 70.7406 98.7149 70.9086 95.7467C71.0206 93.7306 70.5725 91.6585 69.6765 89.8103C69.7325 89.6983 69.7325 89.5863 69.6765 89.4743C69.1725 87.7382 68.1644 86.1701 67.0443 84.77C66.9883 84.714 66.9883 84.658 66.9323 84.658C67.9404 84.21 68.8924 83.65 69.3965 82.5859C69.7325 81.8018 69.9005 80.9058 69.7885 80.0657C69.6765 79.2257 69.2845 78.3856 68.7805 77.6576C67.7724 76.2575 66.2043 75.1934 64.4682 74.8014C62.8441 74.4094 61.108 74.6894 59.6519 75.5855C58.9798 75.9775 58.4758 76.5375 58.1398 77.2096C57.9718 77.6576 57.9158 78.1616 57.9718 78.6657C56.6837 78.3296 55.2836 78.2736 53.9395 78.3856C52.0914 78.6096 50.2993 79.2257 48.7872 80.3458C48.2832 78.8897 47.6671 77.4896 46.8831 76.1455C45.203 73.0653 43.0749 70.1531 41.4508 67.0169C41.1707 66.5129 40.9467 65.9529 40.7227 65.3928C40.8907 65.2808 40.9467 65.0008 40.8907 64.8328C40.8347 64.5528 40.6107 64.4408 40.3867 64.4408C40.0507 63.6007 39.8267 62.7047 39.6587 61.8086C39.3786 60.5205 39.3226 59.2884 39.2666 58.0004C39.6586 57.8884 39.8827 57.2723 39.4346 56.9923C39.3786 56.9923 39.3226 56.9363 39.2666 56.9363C39.2666 56.2643 39.3226 55.6482 39.3786 54.9762C39.3786 54.8082 39.3786 54.6402 39.4346 54.4161C39.5466 54.3041 39.6026 54.1921 39.6026 54.0241C39.6026 53.6321 39.6026 53.2401 39.6026 52.9041C39.8827 52.9601 40.1627 52.792 40.2187 52.512C40.2747 52.344 40.3307 52.12 40.3867 51.952C42.1228 51.0559 44.0269 50.6079 45.987 50.7759C46.155 50.7759 46.3231 50.8319 46.4911 50.8319C46.4911 50.9439 46.5471 50.9999 46.5471 51.1119C46.7151 51.728 47.5551 51.56 47.6111 51.0559C49.4032 51.448 51.1394 52.064 52.9875 52.232C57.5238 52.624 61.78 50.1039 64.9162 47.0237C65.9243 46.0156 66.8203 45.0076 67.7164 43.8875C67.8284 43.8315 67.9404 43.7195 67.9964 43.5515C67.9964 43.5515 67.9964 43.5515 67.9964 43.4955C68.6684 42.6554 69.2845 41.8154 69.9565 41.0313C70.1245 40.8073 70.0125 40.4153 69.7885 40.3033C69.5085 40.1353 69.2285 40.2473 69.0605 40.4713C68.9485 40.6393 68.8365 40.7513 68.7244 40.9193C69.2845 38.3432 69.5085 35.711 69.3965 33.0788C69.3965 32.4068 68.2764 32.4068 68.3324 33.0788C68.4444 36.439 67.9964 39.7992 67.1003 42.9914C64.9722 45.6236 62.6201 48.1438 59.5399 49.7119C57.6358 50.7199 55.5076 51.28 53.3235 51.1679C51.3074 51.0559 49.4032 50.3279 47.3871 49.9359C46.8271 47.9757 46.2671 46.0156 45.707 43.9995C45.203 42.1514 44.699 40.2473 43.9709 38.4552C43.2989 36.7751 42.4588 35.207 41.2827 33.8629C39.9387 32.4068 38.0906 31.2867 36.0184 31.3987C34.7864 31.4547 33.5543 31.7907 32.3782 32.2388C32.3222 32.2388 32.3222 32.2388 32.2662 32.2948C32.9382 31.6787 33.6663 31.1187 34.3943 30.5027C38.2025 27.5345 42.7388 25.1823 47.6111 24.7903C47.2191 24.9023 46.8271 25.0143 46.4351 25.1263C45.763 25.2943 46.043 26.3584 46.7151 26.1904C48.1712 25.7424 49.6833 25.2943 51.1954 24.9023C51.3074 24.9023 51.4194 24.9583 51.5314 24.9583C51.8114 25.0143 52.0914 24.9023 52.1474 24.6223C59.5399 22.4942 67.0443 20.5341 74.6608 19.302C79.3091 18.5739 83.9574 18.1259 88.6617 18.1259C91.0138 18.1259 93.366 18.2379 95.7181 18.5179C97.9582 18.7419 100.254 19.078 102.383 19.694C104.231 20.254 105.799 21.2061 106.639 23.0542C107.423 24.7343 107.423 26.6944 107.367 28.5425C107.143 33.2468 106.079 37.8951 105.071 42.4874C104.007 47.1357 102.943 51.728 102.383 56.4323C101.935 60.0165 101.71 63.6007 101.71 67.1849C99.3023 67.577 96.7822 67.521 94.374 67.0729C94.318 65.7288 94.262 64.3848 94.206 63.0967C93.926 57.8324 93.422 52.568 92.9179 47.3597C92.4699 42.8794 92.1339 38.1191 93.814 33.8629C93.87 33.6949 93.926 33.5269 94.038 33.4149C95.3261 32.7988 96.6142 32.1268 97.9023 31.5107C98.1823 31.3987 98.2383 31.0067 98.0703 30.7827C97.9022 30.5027 97.6222 30.4467 97.3422 30.6147C96.4462 31.0627 95.5501 31.5107 94.598 31.9588C94.486 31.5667 93.87 31.3427 93.646 31.7908C93.478 32.0708 93.366 32.3508 93.1979 32.6308C91.2378 33.5829 89.3337 34.5349 87.3736 35.487C85.7495 36.215 84.1254 36.8871 82.4453 37.3351C80.7092 37.7831 78.9171 38.0071 77.125 38.1751C75.0528 38.3992 72.9807 38.6232 70.8526 38.7912C70.5726 38.8472 70.2925 39.0152 70.2925 39.3512C70.2925 39.6312 70.5165 39.9113 70.8526 39.9113C72.7567 39.7432 74.6048 39.5192 76.5089 39.3512C78.357 39.1832 80.2051 38.9592 81.9973 38.5672C85.5815 37.7831 88.8857 35.991 92.1339 34.3669C92.3019 34.3109 92.4699 34.1989 92.6379 34.1429C91.4058 37.7271 91.4058 41.6474 91.6859 45.3996C91.9099 47.9197 92.1899 50.3839 92.4139 52.9041C92.6379 55.5922 92.8619 58.3364 93.0299 61.0806C93.0859 62.4246 93.198 63.8247 93.254 65.1688C93.31 66.3449 93.422 67.577 93.31 68.753C93.254 69.7611 93.0859 70.8252 92.4699 71.6652C91.9659 72.3933 91.1258 72.8413 90.3978 73.4013C89.6697 73.9054 88.9977 74.5214 88.7177 75.4174C88.3816 76.5375 88.8857 77.6576 89.5017 78.6096C90.2298 79.6737 91.1258 80.6818 91.9099 81.6898C92.6939 82.6979 93.534 83.706 94.318 84.77C94.9901 85.6661 95.7181 86.6741 96.0541 87.7942C96.3901 88.8583 96.4462 89.9224 96.3341 90.9864C96.1661 93.0585 95.4941 95.2427 96.1101 97.3148C96.2781 97.8188 96.5022 98.2669 96.7822 98.7149C96.9502 98.9389 97.2302 99.0509 97.5102 98.8829C100.87 96.9788 102.831 93.3386 103.559 89.6423C104.511 84.826 103.559 79.9537 103.111 75.1374C102.663 70.2091 102.663 65.2248 103.055 60.2405C103.447 55.3682 104.343 50.6079 105.407 45.8476C106.471 41.1433 107.647 36.383 108.207 31.5667C108.711 27.7025 109.215 22.7182 105.911 20.086ZM31.1461 150.014C30.6981 149.118 30.4181 148.11 30.1941 147.158C29.914 146.094 29.69 145.03 29.466 143.966C28.458 139.485 27.3939 135.061 26.5538 130.581C25.7138 126.213 25.1537 121.788 25.5458 117.364C25.8818 113.164 26.8899 109.02 27.6739 104.875C28.3459 101.179 28.794 97.4268 28.458 93.6746C28.962 94.3466 29.522 94.9627 30.026 95.6347C30.1941 95.8587 30.5861 95.8027 30.8101 95.6347C31.0341 95.4107 30.9781 95.0747 30.8101 94.8507C29.97 93.7866 29.074 92.7225 28.2339 91.6585C28.1779 91.4344 28.1219 91.1544 28.0659 90.9304C28.0099 90.5384 27.6179 90.4824 27.3379 90.5944C25.3218 88.1302 23.1936 85.7221 21.0655 83.3139C20.7295 82.9779 20.4495 82.5859 20.1134 82.2499C20.1134 82.1939 20.0574 82.0819 20.0014 82.0259C19.5534 81.4658 19.0494 80.9618 18.4893 80.5138C18.3773 80.4018 18.3213 80.2898 18.2093 80.1777C18.1533 80.1217 18.0973 80.0657 18.0413 80.0657C17.7053 79.7857 17.4253 79.4497 17.0892 79.1697C17.0332 79.0017 17.0332 78.8337 17.1453 78.6096C17.2573 78.3856 17.4253 78.1616 17.6493 77.9936C18.3773 77.5456 19.3854 77.8816 20.1134 78.2176C21.5695 78.8897 22.8576 79.8417 24.0337 80.8498C26.4978 83.0339 28.458 85.6101 30.6421 88.0742C31.8742 89.4183 33.1622 90.7064 34.5623 91.8265C34.6183 91.8825 34.6183 91.8825 34.6743 91.9385C34.7303 91.9945 34.8423 92.0505 34.9543 91.9945C34.6743 93.0585 34.3943 94.1226 34.1143 95.1307C32.7142 92.4985 30.8661 90.0344 28.682 88.0182C27.9539 87.3462 27.2259 86.7301 26.4418 86.1701C26.2178 86.0021 25.8258 86.1141 25.7138 86.3381C25.5458 86.6181 25.6578 86.8982 25.8818 87.0662C28.458 88.9703 30.6981 91.4344 32.3222 94.1786C32.8262 94.9627 33.2182 95.7467 33.6103 96.5868C33.6103 96.5868 33.6103 96.5868 33.6103 96.6428C33.3302 97.6508 33.0502 98.7149 32.8822 99.667C32.3222 102.915 32.2102 106.275 32.0422 109.58C31.9302 111.204 31.8182 112.828 31.5381 114.396C31.2581 116.02 30.8101 117.644 30.5301 119.268C29.858 122.628 30.1941 125.933 30.5861 129.293C30.9221 132.653 31.4261 136.013 31.9862 139.317C32.5462 142.622 33.2183 145.87 34.0023 149.118C34.2823 150.294 34.5063 151.526 34.8984 152.702C33.1623 152.702 31.8742 151.47 31.1461 150.014ZM46.0991 149.958C47.6111 150.126 49.0672 150.574 50.3553 151.302C50.9713 151.638 51.5314 152.03 52.0914 152.422C51.9234 152.534 51.6994 152.59 51.4754 152.646C51.0273 152.702 50.5233 152.758 50.0193 152.814C49.4033 152.87 48.7312 152.87 48.1152 152.926C46.4351 152.982 44.755 152.758 43.2989 151.918C43.2429 151.862 43.1869 151.862 43.0749 151.862C42.6828 151.526 42.2908 151.134 41.9548 150.63C41.7868 150.35 41.6188 150.07 41.4508 149.79C43.0749 149.79 44.587 149.79 46.0991 149.958ZM60.3239 107.059C59.7639 107.395 59.2038 107.843 58.7558 108.347C58.3078 108.852 58.0278 109.468 57.8038 110.084C57.6358 110.532 57.4117 111.148 57.1317 111.484C57.0757 111.54 57.0757 111.54 57.0197 111.596C57.0197 111.596 57.0197 111.596 56.9637 111.596C56.9637 111.596 56.9637 111.596 56.9077 111.596H56.8517C56.7957 111.596 56.7397 111.596 56.6837 111.54C56.5717 111.484 56.5157 111.428 56.4037 111.316C55.9557 110.924 55.5076 110.364 54.8356 110.42C54.4436 110.42 54.1075 110.644 53.6595 110.756C53.2675 110.812 52.8755 110.756 52.4834 110.7C50.6913 110.532 48.8992 110.476 47.1071 110.644C46.8271 110.644 46.5471 110.7 46.2671 110.756C45.987 108.515 46.3231 106.219 47.2751 104.203C47.3871 103.923 47.3311 103.643 47.1071 103.475C46.8831 103.363 46.4911 103.419 46.3791 103.643C45.931 104.595 45.595 105.547 45.371 106.555C44.811 105.827 44.1389 105.099 43.4669 104.427C43.6349 103.867 43.7469 103.251 43.9709 102.691C44.5869 100.787 45.371 98.9389 46.211 97.1468C46.8271 95.8027 47.4431 94.5146 48.0032 93.1705L48.0592 93.2266C48.3952 93.6186 48.8432 94.0666 49.4033 93.8426C49.5713 93.7866 49.7393 93.6186 49.8513 93.5066C50.0193 93.9546 50.7473 93.9546 50.8593 93.4506C50.9153 93.2826 50.9153 93.1705 50.9713 93.0025C51.0273 93.0025 51.0834 93.0025 51.1394 93.0025C51.2514 93.0025 51.3074 93.0025 51.3634 93.0025H51.4194C51.2514 93.2265 51.0833 93.4506 50.9153 93.6746C50.7473 93.8986 50.8593 94.2346 51.0273 94.3466C51.2514 94.5146 51.5314 94.4586 51.7554 94.2906C52.7074 93.4506 53.8835 93.0025 55.1156 92.9465C54.6116 93.3386 54.1075 93.7306 53.6035 94.0666C53.2675 94.2906 53.3235 94.7386 53.5475 94.9067C52.6515 95.1307 51.8674 95.5787 51.2514 96.2507C50.5233 96.9788 49.7953 98.2669 50.4673 99.3309C50.7473 99.779 51.1954 100.059 51.7554 100.059C51.8674 100.115 51.9794 100.115 52.0914 100.115C52.6514 100.003 53.1555 99.611 53.4915 99.1069C53.7715 98.6589 53.3235 98.2109 52.8755 98.3229C52.4834 98.4349 52.2034 98.6589 51.9234 98.8829C51.6994 99.0509 51.4754 98.9389 51.3634 98.6589C51.2514 98.3229 51.4754 97.8748 51.6434 97.5948C51.8674 97.2588 52.0914 96.9788 52.3714 96.7548C53.4355 95.8587 55.1716 95.5227 56.3477 96.3067C56.5717 96.4748 56.8517 96.6988 56.9637 96.9788C57.0757 97.2588 56.9637 97.5948 56.8517 97.8748C56.4597 98.6589 55.9557 99.3869 56.3477 100.283C56.7397 101.123 57.6358 101.571 58.5318 101.627C59.4279 101.739 60.3239 101.571 61.22 101.627C62.8441 101.739 64.5242 102.187 65.5882 103.419C65.0842 103.867 64.5242 104.315 63.9081 104.707C62.7321 105.659 61.5 106.275 60.3239 107.059ZM55.1156 94.7946C55.0596 94.8506 55.0036 94.9067 55.0036 94.9627C54.8916 94.9627 54.7796 94.9627 54.6676 94.9627C54.8916 94.8507 55.0596 94.7386 55.2836 94.6826C55.2276 94.7386 55.1716 94.7386 55.1156 94.7946ZM59.3719 77.6016C59.4279 77.4336 59.5399 77.2096 59.6519 77.0415C59.8199 76.8175 60.0439 76.6495 60.2119 76.5375C61.276 75.7535 62.6761 75.4174 64.0202 75.6415C66.7083 76.0895 69.7885 78.7217 68.7805 81.6898C68.6684 81.9699 68.5564 82.1939 68.3884 82.4739C68.3884 82.4739 68.3884 82.5299 68.3324 82.5859C68.2764 82.6419 68.2204 82.6979 68.1644 82.7539C68.0524 82.8659 67.9964 82.9219 67.8844 82.9779C67.4364 83.3139 66.9323 83.5379 66.4283 83.762C65.5882 82.8099 64.6362 81.9699 63.6281 81.1858C62.34 80.2337 60.94 79.5057 59.4279 79.0017C59.2599 78.4976 59.2038 78.0496 59.3719 77.6016ZM49.5152 81.2418C51.9794 79.3377 55.2836 78.9457 58.2518 79.7297C61.332 80.5138 63.9642 82.5299 65.9803 84.882C66.3163 85.2741 66.6523 85.7221 66.9883 86.1701C66.9323 86.1701 66.8203 86.2261 66.7643 86.2821C66.5403 86.5061 66.5963 86.8422 66.7643 87.0662C68.6124 89.1943 69.9005 91.9385 69.9565 94.8507C70.0125 97.6508 68.8364 100.227 66.9883 102.243C66.7643 102.467 66.5403 102.747 66.3163 102.971C65.1962 101.627 63.4601 101.067 61.724 100.899C60.772 100.787 59.8199 100.899 58.8678 100.899C58.2518 100.899 57.0197 100.619 57.2437 99.723C57.3557 99.3309 57.6358 98.9949 57.8038 98.6029C58.0278 98.1549 58.1398 97.7068 58.0278 97.2028C58.0278 97.0908 57.9718 96.9788 57.9158 96.8668C58.3638 96.6988 58.7558 96.4748 59.2039 96.3067C59.3159 96.2507 59.4279 96.0827 59.4279 95.9707C59.4839 95.8587 59.4279 95.6907 59.3719 95.5787C59.3159 95.4667 59.2038 95.3547 59.0358 95.3547C58.8678 95.2987 58.7558 95.3547 58.6438 95.4107C58.1958 95.6347 57.7478 95.8027 57.2437 96.0267C56.9077 95.7467 56.5717 95.5787 56.1797 95.4107C56.6277 95.0187 57.0757 94.5706 57.4677 94.0666C57.8038 93.6746 57.4678 93.0585 56.9637 93.1705H56.9077C57.1317 92.8905 57.0197 92.3865 56.6277 92.3305C55.4516 92.1065 54.2755 92.2185 53.1555 92.6105C53.3235 92.3305 53.4915 92.1065 53.6035 91.8265C53.8275 91.4344 53.4355 90.9304 52.9875 91.0424C52.8195 91.0984 52.7075 91.0984 52.5394 91.1544C52.1474 91.2664 52.0914 91.7145 52.2594 91.9385C52.1474 92.1065 52.0354 92.3305 51.8674 92.4985C51.8114 92.3865 51.6994 92.2745 51.5314 92.2185C51.4194 92.2185 51.3074 92.1625 51.1394 92.1625C51.1394 92.1065 51.0834 92.0505 51.0834 91.9945C51.2514 91.2104 51.4194 90.4264 51.5874 89.6423C51.6434 89.3623 51.5314 89.0823 51.1954 88.9703C50.9153 88.9143 50.5793 89.0823 50.5233 89.3623C50.2993 90.3704 50.0753 91.3784 49.8513 92.3865C49.5713 92.4985 49.2912 92.6665 49.0112 92.8345C48.9552 92.8905 48.8992 92.9465 48.8432 92.9465L48.7872 92.8905C48.7312 92.8345 48.6192 92.7785 48.5632 92.6665C48.3952 92.4985 48.2832 92.3305 48.1712 92.1625C48.8992 90.2024 49.4592 88.2422 49.5713 86.1141C49.6833 84.49 49.4593 82.9219 49.0672 81.4098C49.4032 81.2978 49.4592 81.2978 49.5152 81.2418ZM44.587 73.9054C46.4351 76.8175 48.2272 79.9537 48.6752 83.4259C49.0112 86.1701 48.4512 88.8023 47.5551 91.3784C47.4991 91.3784 47.4431 91.3784 47.4431 91.4344C47.1631 91.6024 47.1071 91.9385 47.2751 92.1625C47.2751 92.1625 47.2751 92.1625 47.2751 92.2185C46.9391 93.1145 46.5471 93.9546 46.155 94.7946C45.315 96.5868 44.4749 98.3789 43.7469 100.227C43.2429 101.403 42.8508 102.635 42.5148 103.923C42.4028 103.923 42.2908 103.979 42.1788 104.091C42.0108 104.315 41.9548 104.651 42.1788 104.875C42.2348 104.931 42.2348 104.931 42.2908 104.987C42.1788 105.491 42.0668 105.995 42.0108 106.555C41.2267 111.092 41.2828 115.684 41.0587 120.276C40.8907 125.037 40.6107 129.741 40.2747 134.501C40.1067 136.909 39.9387 139.317 39.7146 141.782C39.5466 144.022 39.3226 146.262 39.8827 148.446C40.3307 150.182 41.2267 151.918 42.6828 152.982C44.2509 154.158 46.2671 154.382 48.1712 154.27C48.8432 154.214 49.5153 154.158 50.2433 154.046C50.5233 154.046 50.8033 153.99 51.0273 153.934C51.1954 153.934 51.3074 153.878 51.4754 153.878C52.2594 153.766 53.0435 153.71 53.7715 153.766C55.2836 153.822 56.9077 154.102 58.0838 155.11C58.4758 155.446 58.7558 155.782 58.9798 156.23C52.6515 156.958 46.099 157.014 39.7706 156.118C38.3706 155.95 37.0825 155.558 36.4104 154.214C35.7384 152.926 35.5144 151.358 35.1784 150.014C34.3943 146.766 33.7223 143.518 33.1062 140.213C32.5462 136.909 32.0422 133.605 31.6501 130.245C31.3141 126.941 30.8101 123.58 31.3701 120.276C31.6501 118.652 32.0982 117.14 32.3782 115.516C32.6582 113.948 32.8262 112.324 32.9382 110.7C33.1623 107.451 33.1622 104.147 33.6663 100.899C34.6743 94.5146 38.6506 87.3462 34.8984 81.1298C34.5623 80.5138 33.6103 81.0738 33.9463 81.6898C35.0664 83.538 35.4024 85.4981 35.4024 87.4582C35.1224 86.7862 34.7303 86.1701 34.2263 85.6101C34.0583 85.3861 33.6663 85.4421 33.4423 85.6101C33.2183 85.8341 33.2743 86.1701 33.4423 86.3941C34.3383 87.4582 34.8983 88.8583 34.9543 90.2584C34.9543 90.3704 35.0104 90.4264 35.0104 90.4824C34.9543 90.7064 34.9544 90.8744 34.8984 91.0984C31.7062 87.9622 29.578 83.818 28.906 79.3937C28.738 78.3296 28.682 77.2096 28.682 76.0895C28.682 74.8574 28.794 73.5693 29.298 72.3933C30.0261 70.5451 31.6501 69.2571 33.3302 68.305C34.3383 67.745 35.4024 67.2969 36.4664 66.8489C37.5305 66.4569 38.5946 66.0089 39.6587 65.7289C41.1147 68.529 42.9068 71.2172 44.587 73.9054ZM39.4906 64.6088C38.5386 64.8328 37.5865 65.2248 36.6345 65.6168C35.6264 66.0089 34.5623 66.4569 33.6103 66.9609C31.7061 67.913 29.914 69.2571 28.906 71.1052C28.2899 72.2253 28.0099 73.5133 27.8979 74.8014C27.7859 76.0335 27.8419 77.2096 27.9539 78.4416C28.2339 80.8498 28.85 83.1459 29.858 85.3301C29.9701 85.6101 30.1381 85.8901 30.2501 86.1701C29.466 85.2741 28.682 84.378 27.8979 83.4819C26.7778 82.1939 25.6018 80.9058 24.2577 79.8417C22.9136 78.7217 21.4015 77.6016 19.7214 77.0415C18.6573 76.6495 17.4253 76.5935 16.5852 77.3776C16.3052 77.6016 16.0812 77.9376 15.9692 78.3296C15.6332 78.0496 15.3531 77.7136 15.0171 77.3776C13.505 75.8655 12.2169 74.0174 12.1049 71.8332C12.0489 70.3771 12.385 68.977 12.777 67.633C13.113 66.4569 13.505 65.2808 13.729 64.0487C14.0651 63.7127 14.4011 63.3767 14.7371 63.0967C15.5772 62.4246 16.5292 61.8086 17.4813 61.4166C17.7613 61.3046 17.9293 61.0806 17.8733 60.7445C17.8173 60.4645 17.4813 60.2405 17.2013 60.3525C16.0252 60.8565 14.9611 61.4726 14.0091 62.3126C14.0651 62.0326 14.0651 61.6966 14.1211 61.4166C14.2331 61.4166 14.2891 61.3606 14.3451 61.3046C16.8092 59.3445 19.8334 58.2244 22.9136 57.6644C26.4418 56.9923 30.0821 57.0483 33.6663 57.1603C35.1784 57.2163 36.9145 57.1043 38.3706 57.7204C38.4266 59.9605 38.7066 62.3126 39.4906 64.6088C39.4906 64.5528 39.4906 64.5528 39.4906 64.6088ZM29.858 34.7029C31.5381 33.5829 33.4983 32.8548 35.5144 32.5188C36.5224 32.3508 37.5305 32.4628 38.4266 32.9108C39.2106 33.3028 39.8827 33.8069 40.4987 34.4229C42.9629 36.8871 43.8029 40.5273 44.755 43.7755C45.315 45.7356 45.875 47.7517 46.4351 49.7119C44.5869 49.5438 42.7388 49.8239 41.0027 50.5519C41.1707 49.8799 41.3388 49.2078 41.5628 48.5358C41.6188 48.2558 41.4508 47.9757 41.1707 47.8637C40.8907 47.8077 40.6107 47.9757 40.4987 48.2558C40.2187 49.2078 39.9947 50.2159 39.7146 51.1679C39.4906 49.2638 38.9866 47.4157 38.2586 45.6236C38.1466 45.3436 37.7545 45.2876 37.5305 45.4556C37.2505 45.6236 37.1945 45.9036 37.3625 46.1836C38.2026 48.1438 38.7066 50.2719 38.7626 52.4C38.6506 53.8001 38.5386 55.1442 38.4826 56.5443C37.3065 56.1523 35.9624 56.1523 34.7303 56.0963C32.8262 56.0402 30.9221 55.9842 29.018 56.0402C25.4898 56.0963 21.9056 56.5443 18.6013 57.8324C17.0893 58.3924 15.6332 59.1764 14.3451 60.1285C14.4011 59.7365 14.4011 59.3445 14.4571 59.0084C14.6251 57.6643 14.8491 56.3763 15.1851 55.0882C16.5852 50.1599 19.6094 45.7916 22.9136 41.9834C24.6497 39.9673 26.4978 38.1191 28.3459 36.215C28.794 35.767 29.242 35.375 29.634 34.9269C29.69 34.7589 29.746 34.7589 29.858 34.7029ZM29.186 33.6949C28.682 34.1989 28.1779 34.6469 27.6739 35.151C23.0256 30.8947 18.4333 26.6384 13.785 22.3822C11.4889 20.254 9.19276 18.1819 6.89662 16.0538C5.10451 14.3737 3.2564 12.5256 2.08032 10.3414C0.960255 8.26929 0.28821 5.30111 1.7443 3.22898C3.08838 1.21286 5.94456 1.15686 8.12869 1.15686C14.1771 1.10085 20.1694 2.16492 26.1618 3.22898C29.13 3.73302 32.0982 4.29305 35.1224 4.62907C38.2026 5.0211 41.2827 5.24511 44.3629 5.24511C50.3553 5.35712 56.4037 5.02109 62.284 6.19717C64.8602 6.7012 67.3804 7.48525 69.7885 8.66132C70.9646 9.27736 72.1406 9.9494 73.1487 10.7895C74.1568 11.5735 75.0528 12.5256 76.3969 12.5816C76.5089 12.5816 76.9009 12.5816 76.9569 12.6936C77.0129 12.8616 76.7889 13.0856 76.6769 13.1976C76.2849 13.5896 75.7249 13.6456 75.2208 13.7016C74.0448 13.7576 72.9247 13.4216 71.8606 13.0856C69.6205 12.3015 67.2684 11.2375 64.8042 11.9095C62.3401 12.5816 60.7159 14.5977 58.7558 16.1098C57.1877 17.3419 54.4436 18.5739 52.5954 17.1178C51.6434 16.3338 51.2514 15.0457 50.2433 14.3177C49.2352 13.5336 47.8912 13.3656 46.6031 13.3096C43.5229 13.2536 40.3867 13.3656 37.3065 13.3656C35.7944 13.3656 34.3383 13.3656 32.8262 13.4216C29.69 11.5175 26.5538 9.72538 23.2496 8.21329C20.5055 6.92521 17.6493 5.91715 14.6811 5.18911C14.0091 5.0211 13.729 6.08516 14.4011 6.25317C19.6654 7.48525 24.4817 9.83739 29.13 12.5256C30.1381 13.1416 31.2021 13.7576 32.2102 14.3737C32.2662 14.4297 32.3782 14.4857 32.4902 14.5417C36.0184 16.6698 39.4906 18.854 43.1309 20.8141C45.035 21.8781 46.9951 22.8302 49.0112 23.6702C44.2509 23.6702 39.6586 25.5744 35.7384 28.2625C33.4423 29.8306 31.2581 31.7347 29.186 33.6949ZM102.943 85.4421C102.887 89.2503 101.878 93.3386 99.1343 96.1387C98.6303 96.6428 98.0703 97.0908 97.5102 97.4828C96.6702 95.8027 97.1182 93.8426 97.3422 92.0505C97.5102 90.9864 97.6222 89.8663 97.5102 88.8023C97.3982 87.6822 97.0062 86.6181 96.4462 85.6101C95.8861 84.602 95.1581 83.706 94.43 82.8099C93.59 81.7458 92.7499 80.7378 91.9659 79.6737C91.2378 78.7216 90.2298 77.7696 89.8937 76.5935C89.6137 75.6415 90.0618 74.9134 90.7898 74.3534C91.4618 73.7934 92.3019 73.4013 92.9179 72.7853C93.646 72.1133 94.094 71.1612 94.318 70.2091C94.486 69.5371 94.542 68.865 94.542 68.193C96.9502 68.585 99.4703 68.641 101.878 68.249C101.878 69.1451 101.934 70.0971 101.934 70.9932C102.046 73.4013 102.271 75.8655 102.551 78.2736C102.719 80.6258 102.999 83.0339 102.943 85.4421Z" fill="#112734"/>
<path d="M95.4381 73.0092C94.5981 73.7933 94.2621 74.9133 94.2061 76.0334C94.2061 77.3215 94.6541 78.5536 95.1021 79.7857C95.2141 80.0657 95.4381 80.2337 95.7741 80.1777C96.0542 80.1217 96.2782 79.7857 96.1662 79.5056C95.4941 77.7695 94.5421 75.3054 96.1662 73.7933C96.7262 73.2892 95.9422 72.5612 95.4381 73.0092Z" fill="#231F20"/>
<path d="M52.9316 12.3574C53.2116 12.4694 53.5476 12.2454 53.6036 11.9654C53.6596 11.6294 53.4916 11.4053 53.2116 11.2933C53.1556 11.2933 53.0996 11.2373 53.0996 11.2373C53.0436 11.1813 52.9316 11.1813 52.8756 11.1253C52.7076 11.0693 52.5396 10.9573 52.4276 10.9013C52.3716 10.8453 52.2595 10.7893 52.2035 10.7333L52.1475 10.6773L52.0915 10.6213C52.0355 10.5653 51.9795 10.5093 51.8675 10.3973C51.8675 10.3973 51.8675 10.3413 51.8115 10.3413L51.7555 10.2853C51.6995 10.2293 51.6995 10.1733 51.6435 10.1173C51.6435 10.0613 51.6435 10.0613 51.5875 10.0053C51.5875 9.94925 51.5875 9.94925 51.5875 9.89324C51.5875 9.89324 51.5875 9.89324 51.5875 9.83724C51.5875 9.78124 51.5875 9.72523 51.5875 9.61323C51.5875 9.61323 51.5875 9.61323 51.5875 9.55722V9.50122C51.5875 9.44522 51.5875 9.44522 51.6435 9.38921V9.33321V9.27721C51.6435 9.27721 51.6435 9.2212 51.6995 9.2212C51.6995 9.2212 51.7555 9.1652 51.8115 9.1652C52.0355 8.99719 52.0355 8.60516 51.8115 8.38115C51.5875 8.15714 51.3075 8.21314 51.0275 8.38115C50.3554 8.94118 50.3554 10.0053 50.7475 10.7333C51.2515 11.6294 52.1475 12.0214 52.9316 12.3574ZM51.6435 10.1733C51.6435 10.2293 51.6435 10.2293 51.6435 10.1733V10.1733Z" fill="#231F20"/>
</svg>
