<svg width="80" height="178" viewBox="0 0 80 178" fill="none" xmlns="http://www.w3.org/2000/svg">
<path d="M79.7224 61.9722C79.513 59.7385 79.0243 57.5049 78.3961 55.3411C78.5357 55.2015 78.6055 54.9921 78.6055 54.8525C78.6055 54.5035 78.3263 54.2243 77.9773 54.2243C77.7679 53.5961 77.5585 52.8981 77.2793 52.2699C76.0229 49.1288 74.2081 46.267 72.2537 43.475C68.275 37.8909 63.8078 32.5861 59.1311 27.6302C58.9217 27.4208 58.7822 27.2812 58.5728 27.0718C53.2679 19.6032 46.4274 13.2513 38.6097 8.43505C34.7009 5.99202 30.5129 3.96782 26.1154 2.3624C21.4388 0.687186 16.0641 -0.988043 11.2479 0.756974C9.22367 1.45498 7.33905 2.71141 6.08264 4.52623C4.61683 6.55045 4.40742 9.13305 4.47723 11.5761C4.68663 17.2997 5.03563 22.9536 5.24503 28.6772C5.52424 34.3311 5.66384 39.985 5.24503 45.6388C5.03563 48.4308 4.61683 51.2229 4.12822 54.0149C3.63962 56.7371 3.08121 59.5291 2.66241 62.3212C2.31341 65.1132 2.104 67.975 2.0342 70.8369C2.0342 72.3027 2.0342 73.6987 2.104 75.1645C2.1738 76.5605 2.31341 77.8867 2.1738 79.2827C2.104 80.6089 1.755 81.7956 1.2664 82.9822C0.777791 84.099 0.289186 85.2856 0.219386 86.542C0.149585 87.589 0.428787 88.7058 1.12679 89.4736C1.755 90.2414 2.80201 90.5206 3.70942 90.381C3.77922 90.381 3.84902 90.381 3.84902 90.3112C3.91882 90.73 4.12822 91.2186 4.26782 91.5676C4.68663 92.5449 5.24503 93.3825 5.87324 94.2899C7.05985 95.9651 8.45586 97.5705 9.15387 99.4551C9.36327 99.9437 9.43307 100.432 9.50287 100.921C9.57267 101.479 9.64248 102.108 9.99148 102.596C10.5499 103.434 11.6667 103.713 12.5741 103.504C12.8533 104.76 13.9701 105.807 15.2963 105.807C16.0641 106.575 16.9017 107.273 17.8092 107.901C18.7166 108.599 19.9032 109.157 21.02 108.599C21.718 108.25 22.1368 107.552 22.3462 106.784C22.5556 106.645 22.6254 106.435 22.6952 106.226C22.765 105.877 23.1838 105.598 23.463 105.458C23.9516 105.179 24.4402 104.9 24.9986 104.62C26.0456 104.132 27.1624 103.713 28.2793 103.364C30.3035 102.806 32.6069 102.457 34.7009 102.736C35.8177 102.945 36.8647 103.294 37.7023 103.992C37.7023 103.992 37.7023 103.992 37.7721 103.992C38.0513 104.83 38.4004 105.667 38.7494 106.435C40.0756 109.716 41.6112 112.927 42.5186 116.277C42.9374 117.882 43.2864 119.558 43.3562 121.303C43.426 123.118 43.2166 124.863 42.8676 126.608C42.1696 130.098 41.332 133.448 41.4018 137.008C41.4018 138.543 41.6112 140.079 41.8206 141.545C42.03 144.756 42.2394 147.967 42.379 151.247C42.4488 152.992 42.5186 154.807 42.5186 156.552C42.5186 157.459 42.5884 158.297 42.5884 159.204C42.5884 159.972 42.6582 160.81 42.5884 161.648C42.5186 162.206 42.3092 162.695 41.7508 162.904C41.0528 163.183 40.2152 163.253 39.4474 163.393C37.7721 163.742 36.0969 164.091 34.4915 164.579C32.8163 164.998 31.2109 165.487 29.6055 166.045C29.1867 166.185 28.7679 166.324 28.4189 166.464C28 166.603 27.5812 166.743 27.2322 166.952C26.4644 167.371 26.4644 168.348 27.0228 168.977C27.651 169.675 28.6981 169.465 29.6055 169.395C30.5827 169.326 31.6297 169.186 32.6069 169.116C34.2821 168.977 35.9573 168.767 37.5627 168.628C37.4929 168.767 37.4929 168.837 37.4231 168.977C37.1439 169.605 37.7023 170.163 38.3306 169.884C40.2152 169.046 42.1696 168.418 44.1938 168.139C43.6354 168.628 42.8676 168.907 42.0998 169.046C40.285 169.535 38.4004 169.954 36.5855 170.442C32.8163 171.35 29.0471 172.327 25.3476 173.234C24.4402 173.444 23.463 173.723 22.5556 173.932C22.2066 174.002 21.8576 174.561 22.1368 174.91C24.0214 177.353 27.0926 177.911 30.0243 177.981C31.8391 178.051 33.5841 177.911 35.3989 177.841C37.4231 177.771 39.4474 177.632 41.4716 177.562C43.2166 177.422 44.9616 177.353 46.567 176.724C48.0328 176.096 49.1497 175.049 49.9873 173.723C50.7551 172.397 51.1739 170.931 51.4531 169.465C51.8021 167.65 52.0813 165.836 52.3605 163.951C53.4773 156.063 53.8961 148.106 53.9659 140.219C54.0357 132.261 53.6867 124.304 53.4075 116.347C53.2679 112.368 52.9887 108.459 52.2907 104.551C52.2209 104.202 52.1511 103.783 52.0813 103.434C52.1511 103.434 52.1511 103.434 52.2209 103.434C57.7351 101.759 62.9004 98.8269 67.1582 94.9181C71.5557 90.8696 75.0457 85.9138 77.2095 80.3297C79.5129 74.6061 80.4204 68.2542 79.7224 61.9722ZM76.5813 54.1545C75.3249 54.2941 74.1383 54.7129 72.8819 54.9921C71.1369 55.4109 69.3919 55.4109 67.6468 55.5505C67.228 55.6203 66.8092 55.6203 66.4602 55.6901C69.2523 53.5961 71.6255 51.0135 73.9987 48.4308C74.3477 49.059 74.6967 49.6175 74.9759 50.2457C75.6041 51.5719 76.1625 52.8283 76.5813 54.1545ZM49.0799 72.1631C47.1952 74.1873 44.473 75.0947 41.9602 76.2115C40.7038 76.7699 39.5172 77.4679 38.4701 78.3055C38.3306 78.4451 38.1909 78.5847 37.9815 78.7243C38.3306 77.1189 38.0513 75.3041 37.1439 73.9081C35.2593 71.0463 30.9317 69.8596 27.8605 71.4651C26.953 71.9537 26.255 72.7215 25.9758 73.6987C25.906 73.9779 25.8362 74.2571 25.8362 74.5363C24.51 73.9081 23.0442 73.4195 21.5086 73.2799C20.1824 73.1403 18.7864 73.2101 17.4602 73.4893C18.1582 72.2329 18.6468 70.8368 18.7864 69.3012C18.9958 67.0676 18.3676 64.834 16.9715 63.0192C16.8319 62.8098 16.6923 62.6702 16.4829 62.4608C16.4829 61.0648 17.0413 59.7385 17.7394 58.5519C18.5072 57.1559 19.4146 55.7599 20.2522 54.4337C21.9274 51.6417 23.463 48.71 24.161 45.4992C24.4402 44.0334 24.5798 42.5676 24.51 41.1018C27.7906 43.3354 31.5599 44.8012 34.7707 47.0348C35.8177 47.8026 36.7949 48.6402 37.6325 49.5477C38.6098 50.7343 39.3776 52.0605 40.0058 53.3867C40.285 53.9451 40.5642 54.5035 40.7736 55.0619C40.634 55.2015 40.634 55.4109 40.634 55.6203C41.0528 58.4123 42.5186 60.9252 44.6824 62.74C45.7992 63.6474 46.9858 64.4152 48.312 64.9736C48.9403 65.183 49.5685 65.3924 50.1967 65.532C50.9645 65.6716 51.8021 65.8112 52.5001 65.6716H52.5699C51.5927 67.975 50.7551 70.3482 49.0799 72.1631ZM30.2337 88.2172C28 87.6588 25.4872 87.3098 23.463 88.4266L23.3932 88.3568C22.765 87.5192 21.9274 86.8212 20.9502 86.6118C19.8334 86.3326 18.7864 86.8212 18.2978 87.8682C17.8092 88.8454 17.9488 89.8226 18.2978 90.7998C14.4587 91.079 10.0613 91.4979 6.78065 89.334C9.64247 90.1716 12.7137 90.3112 15.6453 89.683C16.4829 89.4736 16.1339 88.2172 15.2963 88.3568C13.1325 88.8454 10.8989 88.8454 8.80487 88.4266C9.36327 88.287 9.92168 88.287 10.4801 88.287C11.3177 88.3568 11.3177 87.0306 10.4801 86.9608C9.71228 86.891 8.94447 86.7514 8.24646 86.542C8.66527 85.844 9.01427 85.146 9.29347 84.448C9.99148 82.703 10.4801 80.8183 11.5271 79.1431C11.6667 78.8639 11.8761 78.6545 12.0157 78.4451C13.6211 77.6773 15.0869 76.6303 16.2735 75.3041C19.6938 73.9779 23.463 74.5363 26.5342 76.4209C26.5342 76.4907 26.604 76.4907 26.604 76.5605C26.6738 76.7001 26.8832 76.7699 27.0228 76.7699C27.1624 76.8397 27.302 76.9793 27.4416 77.0491C28.2793 77.6773 29.0471 78.3753 29.7451 79.2129C30.4431 80.0505 31.0015 80.9579 31.6995 81.7257C32.3277 82.4936 33.1653 83.1218 34.1425 83.3312C33.1653 83.8896 32.1881 84.5876 31.4203 85.495C30.7223 86.193 30.3035 87.1702 30.2337 88.2172ZM27.3718 73.8383C27.5812 73.2101 28.1397 72.8611 28.6981 72.5819C29.9545 71.9537 31.4901 72.0235 32.8163 72.3725C34.1425 72.7215 35.3989 73.4893 36.0969 74.6759C36.7949 75.7927 37.0741 77.1887 36.7251 78.5149C36.5157 79.2827 36.1667 79.8411 35.6083 80.4693C35.1895 80.9579 34.7707 81.4466 34.4217 81.9352C33.5841 81.7956 32.8861 81.0975 32.3975 80.4693C31.6995 79.6317 31.0713 78.6545 30.3733 77.8169C29.6055 76.9793 28.7679 76.2115 27.7906 75.5833C27.651 75.5135 27.5114 75.3739 27.3718 75.3041C27.0926 74.8853 27.1624 74.3269 27.3718 73.8383ZM15.1567 60.3668C15.0171 59.8083 15.0869 59.1801 15.1567 58.6217C15.2265 57.9935 15.3661 57.3653 15.5057 56.7371C16.1339 54.2243 17.0413 51.7813 18.0186 49.3382C18.9958 46.8254 20.0428 44.3126 20.8804 41.7998C21.2294 40.8924 21.5086 39.985 21.7878 39.0078C22.2066 39.3568 22.5556 39.7058 22.9744 40.0548C22.9744 40.1246 22.9744 40.2642 22.9744 40.334C23.463 43.4052 22.6254 46.616 21.2992 49.408C19.9032 52.3397 18.0186 54.9921 16.4829 57.8539C15.9245 58.8311 15.5057 59.8083 15.2265 60.9252C15.2963 60.7158 15.2265 60.5762 15.1567 60.3668ZM44.124 60.2271C44.4032 60.5761 44.7522 60.8554 45.1012 61.2044C46.3576 62.3212 47.8234 63.2984 49.3591 63.9964C48.312 63.6474 47.4046 63.1588 46.4972 62.5306C45.52 61.9024 44.7522 61.1346 44.124 60.2271ZM6.15244 7.59745C6.64105 5.57323 7.96726 3.96781 9.78208 2.9208C14.0399 0.338174 19.2052 1.45498 23.6026 2.9208C27.7906 4.31681 31.8391 6.06183 35.6781 8.22565C43.426 12.5533 50.2665 18.4166 55.7109 25.3966C55.9203 25.606 56.0599 25.8852 56.2693 26.0946C56.1995 26.304 56.2693 26.5134 56.4089 26.7228C56.8277 27.1416 57.2465 27.5604 57.5955 27.9792C57.5955 28.049 57.6653 28.049 57.7351 28.1188C61.9232 32.5861 65.9018 37.2627 69.6013 42.1488C70.8577 43.824 72.1141 45.569 73.2309 47.314C71.1369 49.6872 68.9033 52.0605 66.4602 54.0847C65.2038 55.0619 63.8776 55.9693 62.4816 56.7371C62.0628 56.9465 61.644 57.1559 61.2252 57.3653C61.0158 57.2955 60.8064 57.2955 60.6668 57.4351C60.3876 57.6445 60.1084 57.8539 59.8292 58.0633C59.55 58.2029 59.201 58.3425 58.9218 58.4821C57.7351 59.1103 56.5485 59.7385 55.5015 60.5761C54.4545 61.4138 53.6867 62.391 53.1283 63.5776C53.1283 63.6474 53.0585 63.7172 53.0585 63.7172C50.6853 63.2286 48.3818 62.1118 46.4972 60.5761C45.4502 59.6687 44.473 58.6217 43.7052 57.5049C42.7978 56.1787 42.1696 54.7129 41.4716 53.2471C40.7736 51.8511 40.0756 50.4551 39.0984 49.1987C38.2607 48.1516 37.2835 47.2442 36.2365 46.4764C34.1425 44.871 31.7693 43.6844 29.4659 42.428C26.953 41.1018 24.3704 39.636 22.416 37.5419C22.765 36.3553 23.114 35.1687 23.3932 33.9821C23.6724 32.7955 23.8818 31.5391 24.0214 30.2827C26.4644 33.3539 29.8847 35.7271 33.2351 37.7513C34.2821 38.3795 35.3291 39.0078 36.3761 39.7058C37.4231 40.334 38.4702 40.9622 39.4474 41.73C40.4246 42.4978 41.2622 43.4052 41.681 44.6616C42.0998 45.918 42.0998 47.2442 42.2394 48.5704C42.4488 51.7115 43.4958 54.7129 45.3106 57.2955C45.52 57.5747 45.869 57.7143 46.218 57.5049C46.4972 57.3653 46.6368 56.8767 46.4274 56.5975C44.822 54.4337 43.8448 51.8511 43.5656 49.1288C43.426 47.7328 43.426 46.4066 43.1468 45.0106C42.8676 43.6844 42.1696 42.428 41.1924 41.4508C40.285 40.5434 39.238 39.8453 38.1211 39.1473C37.0741 38.5191 36.0271 37.8211 34.9801 37.1929C32.8861 35.9365 30.8619 34.6103 28.9075 33.1445C27.0228 31.6787 25.3476 30.0035 24.0912 28.049C24.0912 27.4906 24.0912 26.9322 24.0214 26.3738C23.5328 21.8368 21.5784 17.579 18.4374 14.2983C18.0884 13.8795 17.6696 13.5305 17.2507 13.1815C16.9715 12.9721 16.5527 12.9023 16.2735 13.1815C16.0641 13.3909 15.9943 13.8795 16.2735 14.1587C19.5542 17.0205 21.718 20.9294 22.4858 25.1872C22.6254 25.8154 22.6952 26.3738 22.6952 27.002C22.416 27.1416 22.1368 27.5604 22.416 27.9094C22.5556 28.1189 22.6254 28.2584 22.765 28.4678C22.6952 32.3069 21.5086 36.0761 20.322 39.7058C19.4844 42.2186 18.577 44.7314 17.5998 47.1744C16.6225 49.5476 15.6453 51.9209 14.8775 54.3639C14.6681 54.9921 14.5285 55.6901 14.3191 56.3183C11.1781 56.2485 8.17666 55.2015 5.59404 53.3867C5.94304 51.5719 6.22224 49.8268 6.43164 48.012C7.05985 42.6374 6.99005 37.1929 6.78065 31.7485C6.57124 26.2342 6.29204 20.72 6.01284 15.2755C5.94304 13.9493 5.87324 12.6929 5.87324 11.3667C5.80344 10.1103 5.87324 8.85386 6.15244 7.59745ZM2.80201 88.8454C1.9644 88.5662 1.6852 87.589 1.6154 86.7514C1.6154 85.6346 2.0342 84.6574 2.45301 83.6104C2.94161 82.4238 3.36042 81.2372 3.50002 79.9109C3.77922 77.3283 3.43022 74.6759 3.36042 72.0235C3.36042 69.3012 3.50002 66.579 3.77922 63.8568C4.12822 60.7856 4.68663 57.7841 5.24503 54.7129C7.82766 56.4579 10.8291 57.4351 13.9003 57.5049C13.9003 57.6445 13.8305 57.7143 13.8305 57.8539C13.6211 59.1103 13.5513 60.3667 14.1795 61.5534C14.4587 62.042 14.8077 62.4608 15.1567 62.8098C15.2265 63.089 15.3661 63.3682 15.6453 63.3682C15.8547 63.5776 15.9943 63.787 16.1339 64.0662C16.6923 64.9038 17.1111 65.881 17.2507 66.928C17.5998 68.9522 17.1809 71.0462 16.1339 72.7215C15.8547 73.1403 15.5755 73.5591 15.2963 73.9081C15.2265 73.9081 15.1567 73.9779 15.0869 73.9779C13.7607 74.5363 12.5741 75.3739 11.5969 76.3511C11.7365 75.8625 11.8761 75.3739 12.0157 74.8853C12.2949 74.0477 10.9687 73.6987 10.6895 74.5363C10.3405 75.6531 9.99148 76.7699 9.64248 77.8169C9.57267 78.0263 9.64248 78.3055 9.85188 78.5149C8.94447 80.0505 8.45586 81.8653 7.82766 83.5406C7.47865 84.3782 7.12965 85.2158 6.57125 85.9836C6.29204 86.3326 6.01284 86.6816 5.66384 86.9608C5.45444 87.1702 5.17523 87.3796 4.89603 87.5192C4.75643 87.5192 4.61683 87.5192 4.54703 87.589C4.26783 87.6588 3.98862 88.0078 3.98862 88.287C3.84902 88.9152 3.22081 88.985 2.80201 88.8454ZM32.1881 101.34C29.5357 101.549 26.8832 102.247 24.51 103.434C24.161 103.573 23.7422 103.783 23.3932 103.992C23.5328 103.434 23.6724 102.875 23.812 102.387C24.161 100.991 24.5798 99.5249 24.9288 98.1289C25.1382 97.2913 23.8818 96.9423 23.6026 97.7799C23.1838 99.3155 22.8348 100.781 22.416 102.317C22.2066 103.085 21.9972 103.853 21.8576 104.551C21.718 105.179 21.5784 105.877 21.2992 106.505C21.1596 106.854 20.9502 107.273 20.5314 107.412C19.973 107.552 19.3448 107.133 18.926 106.784C18.3676 106.435 17.8092 106.016 17.3206 105.528C17.0413 105.318 16.8319 105.039 16.5527 104.83C16.4131 104.69 16.3433 104.551 16.2037 104.481C15.9943 104.341 15.7849 104.341 15.5755 104.341C14.5983 104.341 13.8305 103.224 14.1097 102.387C14.3191 101.759 13.4117 101.2 12.9929 101.759C12.5741 102.247 11.8063 102.247 11.3875 101.898C11.0385 101.619 11.0385 101.061 10.9687 100.642C10.8989 100.153 10.7593 99.6645 10.6197 99.1759C9.92168 97.2215 8.66527 95.6161 7.47865 94.0107C6.85045 93.1731 6.29204 92.3355 5.87324 91.4281C5.66384 91.0092 5.38463 90.5206 5.31483 90.032C5.31483 89.9622 5.31483 89.9622 5.31483 89.8924C8.10686 92.1261 11.9459 92.5449 15.4359 92.4053C16.6923 92.3355 18.0186 92.1959 19.275 92.1261C19.624 92.1261 20.1126 91.7072 19.9032 91.2884C19.5542 90.4508 18.9958 89.1944 19.6938 88.3568C20.2522 87.6588 21.2992 88.1474 21.7878 88.636C22.067 88.8454 22.2764 89.1246 22.416 89.4038C21.9972 89.8226 22.416 90.5206 22.9046 90.5206C23.3234 91.8468 23.114 93.3825 22.765 94.7087C22.5556 95.5463 23.812 95.8953 24.0912 95.0577C24.51 93.3825 24.7194 91.428 24.161 89.7528C26.1154 88.5662 28.7679 89.334 30.8619 89.8924C31.3505 90.032 31.7693 89.5434 31.6995 89.0548C31.4901 88.0078 31.9089 86.9608 32.6069 86.193C33.3747 85.2856 34.4217 84.7272 35.4687 84.1688C35.4687 84.1688 35.4687 84.1688 35.5385 84.1688C35.1197 86.8212 35.5385 89.6132 35.9573 92.2656C35.9573 92.3354 36.0271 92.4053 36.0271 92.4751C35.6781 95.7557 36.3761 99.1061 37.3533 102.247C35.7479 101.34 33.9331 101.2 32.1881 101.34ZM30.8619 168.069C30.0941 168.139 29.2565 168.279 28.4887 168.279C28.3491 168.279 28.2094 168.279 28.1397 168.209C28.2094 168.209 28.4189 168.139 28.4887 168.069C28.6283 167.999 28.6981 167.999 28.8377 167.93C29.6055 167.65 30.3733 167.371 31.1411 167.162C32.7465 166.673 34.3519 166.185 35.9573 165.766C37.5627 165.347 39.1682 164.998 40.8434 164.649C41.6112 164.509 42.379 164.44 43.0072 164.021C43.6354 163.602 43.9844 162.974 44.124 162.276C44.2636 161.508 44.1938 160.74 44.1938 159.972C44.1938 159.135 44.1938 158.297 44.124 157.459C44.124 155.714 44.0542 153.969 43.9844 152.294C43.9844 151.596 43.9146 150.968 43.9146 150.27C44.473 152.434 44.9616 154.667 45.3106 156.901C45.5898 158.506 45.7294 160.182 45.7992 161.857C45.7992 163.393 45.7992 165.068 45.3106 166.603C45.3106 166.673 45.2408 166.813 45.2408 166.883C43.2166 167.092 41.2622 167.511 39.3776 168.209C39.4474 167.79 39.238 167.301 38.7494 167.301C37.0043 167.441 35.3291 167.65 33.5841 167.79C32.6069 167.93 31.6995 167.999 30.8619 168.069ZM52.3605 124.234C52.5001 128.073 52.5699 131.982 52.6397 135.821C52.7095 143.569 52.5001 151.317 51.6625 158.995C51.4531 160.95 51.2437 162.904 50.8947 164.789C50.6155 166.464 50.4061 168.209 49.9873 169.884C49.6383 171.28 49.2195 172.676 48.3818 173.793C47.4744 175.049 46.1482 175.677 44.6126 176.026C42.8676 176.375 41.0528 176.375 39.3078 176.515C37.3533 176.655 35.3291 176.724 33.3747 176.794C30.5827 176.864 27.302 177.143 24.7892 175.677C24.51 175.538 24.2308 175.328 24.0214 175.119C27.4416 174.281 30.8619 173.444 34.2821 172.606C36.2365 172.118 38.1212 171.629 40.0756 171.21C41.681 170.791 43.5656 170.582 44.9616 169.535C45.4502 169.116 45.869 168.628 46.1482 168.139C46.567 167.999 46.7066 167.511 46.567 167.162C46.7066 166.673 46.8462 166.115 46.916 165.626C47.1254 163.951 47.1952 162.276 47.1254 160.67C46.916 157.25 46.218 153.969 45.3804 150.619C44.6824 147.618 43.8448 144.686 43.426 141.615C43.426 141.266 43.3562 140.917 43.3562 140.638C43.3562 140.498 43.2864 140.358 43.2166 140.289C43.0072 138.753 42.9374 137.287 43.0072 135.751C43.077 134.006 43.3562 132.261 43.7052 130.516C44.473 126.957 45.2408 123.467 44.822 119.767C44.4032 116.277 43.1468 112.996 41.8206 109.716C39.3078 103.713 35.9573 96.9423 37.7721 90.2414C37.9815 89.4736 38.2607 88.7058 38.6097 88.0078C38.9588 87.24 37.8419 86.542 37.4231 87.3098C37.2137 87.7984 37.0043 88.287 36.7949 88.7756C36.5855 86.891 36.5855 84.9366 37.0741 83.1218C37.4231 81.7955 38.1211 80.6089 39.0984 79.7015C40.0058 78.7941 41.1924 78.1659 42.379 77.6075C44.6126 76.5605 46.9858 75.7927 48.8705 74.2571C51.2437 74.1175 53.0585 75.8625 54.2451 77.8169C55.3619 79.7015 56.0599 81.7956 56.4787 83.9594C57.2465 88.0776 56.6881 92.4053 55.0129 96.2443C54.1753 98.0591 53.1283 99.8041 51.8719 101.27C51.5927 98.7571 51.7323 96.2443 52.2907 93.7315C52.5001 92.8939 51.1739 92.5449 50.9645 93.3825C50.8947 93.5221 50.8947 93.6617 50.8947 93.8013C50.8947 93.6617 50.8947 93.4523 50.8947 93.3127C50.9645 92.3354 51.0343 91.428 51.2437 90.5206C51.3833 89.683 50.1269 89.334 49.9175 90.1716C49.1497 93.8711 49.6383 97.6403 50.3363 101.34C50.6853 103.224 51.1041 105.039 51.3833 106.924C51.6625 108.808 51.8719 110.693 51.9417 112.647C52.1511 116.486 52.2209 120.326 52.3605 124.234ZM76.7209 77.8169C74.9061 83.401 71.8349 88.4266 67.7864 92.6146C63.8776 96.5933 59.0614 99.7343 53.8263 101.619C53.4773 101.759 53.1981 101.828 52.8491 101.968C55.5015 98.8269 57.1767 94.9879 57.7351 90.9394C58.3633 86.4024 57.7351 81.5861 55.5015 77.5377C54.3847 75.4437 52.5001 73.4195 50.1269 73.0007C51.8719 71.0462 52.7793 68.4636 53.9659 66.1602C54.5243 65.1132 55.1525 64.136 55.9203 63.2286C56.2693 63.438 56.6183 63.2984 56.8277 63.0192C58.5029 60.8554 60.7366 59.1103 63.3192 58.0633C64.6454 57.5049 66.0414 57.1559 67.4374 57.0163C69.1824 56.8069 70.9275 56.8069 72.6027 56.5277C74.0685 56.2485 75.4645 55.6203 77.0001 55.5505C77.4189 56.9465 77.7679 58.3425 77.9773 59.7385C79.0941 65.6716 78.6055 71.9537 76.7209 77.8169Z" fill="#112734"/>
<path d="M10.8287 67.1374C11.9455 66.23 12.3643 64.6944 12.0153 63.2984C11.9455 62.9493 11.5267 62.74 11.1777 62.8098C10.8287 62.9494 10.6193 63.2984 10.6891 63.6474C10.6891 63.7172 10.6891 63.787 10.7589 63.8568V63.9266C10.7589 63.8568 10.7589 63.8568 10.7589 63.9266C10.7589 64.0662 10.7589 64.2058 10.7589 64.3454C10.7589 64.4152 10.7589 64.485 10.7589 64.5548V64.6246C10.7589 64.7642 10.6891 64.9038 10.6891 65.0434C10.6891 65.1132 10.6193 65.183 10.6193 65.183C10.6193 65.183 10.6193 65.2528 10.5495 65.2528C10.4797 65.3924 10.4099 65.532 10.3401 65.6018L10.2703 65.6716C10.2703 65.7414 10.2005 65.7414 10.1307 65.8112C10.0609 65.9508 9.92127 66.0206 9.78167 66.0904C9.50246 66.2998 9.50246 66.7884 9.78167 67.0676C10.1307 67.3468 10.5495 67.3468 10.8287 67.1374Z" fill="#112734"/>
</svg>
